<svg width="25" height="24" viewBox="0 0 25 24" fill="none" xmlns="http://www.w3.org/2000/svg">
<path fill-rule="evenodd" clip-rule="evenodd" d="M8.50031 2.25C8.91455 2.25 9.25035 2.58579 9.25035 3V5.7C9.25035 6.11421 8.91455 6.45 8.50031 6.45C8.08607 6.45 7.75026 6.11421 7.75026 5.7V3C7.75026 2.58579 8.08607 2.25 8.50031 2.25Z" fill="#B0B4C1"/>
<path fill-rule="evenodd" clip-rule="evenodd" d="M15.7007 2.25C16.115 2.25 16.4508 2.58579 16.4508 3V5.7C16.4508 6.11421 16.115 6.45 15.7007 6.45C15.2865 6.45 14.9507 6.11421 14.9507 5.7V3C14.9507 2.58579 15.2865 2.25 15.7007 2.25Z" fill="#B0B4C1"/>
<path fill-rule="evenodd" clip-rule="evenodd" d="M3.70003 9.38097C3.70003 8.96676 4.03583 8.63097 4.45007 8.63097H19.751C20.1652 8.63097 20.501 8.96676 20.501 9.38097C20.501 9.79518 20.1652 10.131 19.751 10.131H4.45007C4.03583 10.131 3.70003 9.79518 3.70003 9.38097Z" fill="#B0B4C1"/>
<path fill-rule="evenodd" clip-rule="evenodd" d="M5.61848 6.09784C5.05897 6.70035 4.75009 7.61497 4.75009 8.85V16.5C4.75009 17.735 5.05897 18.6496 5.61848 19.2522C6.16865 19.8446 7.06817 20.25 8.50031 20.25H15.7007C17.1329 20.25 18.0324 19.8446 18.5826 19.2522C19.1421 18.6496 19.451 17.735 19.451 16.5V8.85C19.451 7.61497 19.1421 6.70035 18.5826 6.09784C18.0324 5.50538 17.1329 5.1 15.7007 5.1H8.50031C7.06817 5.1 6.16865 5.50538 5.61848 6.09784ZM4.51923 5.07716C5.43165 4.09462 6.78226 3.6 8.50031 3.6H15.7007C17.4188 3.6 18.7694 4.09462 19.6818 5.07716C20.5849 6.04965 20.951 7.38503 20.951 8.85V16.5C20.951 17.965 20.5849 19.3004 19.6818 20.2728C18.7694 21.2554 17.4188 21.75 15.7007 21.75H8.50031C6.78226 21.75 5.43165 21.2554 4.51923 20.2728C3.61616 19.3004 3.25 17.965 3.25 16.5V8.85C3.25 7.38503 3.61616 6.04965 4.51923 5.07716Z" fill="#B0B4C1"/>
<path fill-rule="evenodd" clip-rule="evenodd" d="M14.4259 13.53C14.4259 12.9777 14.8736 12.53 15.4259 12.53H15.434C15.9863 12.53 16.4341 12.9777 16.4341 13.53C16.4341 14.0823 15.9863 14.53 15.434 14.53H15.4259C14.8736 14.53 14.4259 14.0823 14.4259 13.53Z" fill="#B0B4C1"/>
<path fill-rule="evenodd" clip-rule="evenodd" d="M14.4259 16.23C14.4259 15.6777 14.8736 15.23 15.4259 15.23H15.434C15.9863 15.23 16.4341 15.6777 16.4341 16.23C16.4341 16.7823 15.9863 17.23 15.434 17.23H15.4259C14.8736 17.23 14.4259 16.7823 14.4259 16.23Z" fill="#B0B4C1"/>
<path fill-rule="evenodd" clip-rule="evenodd" d="M11.0964 13.53C11.0964 12.9777 11.5441 12.53 12.0965 12.53H12.1045C12.6569 12.53 13.1046 12.9777 13.1046 13.53C13.1046 14.0823 12.6569 14.53 12.1045 14.53H12.0965C11.5441 14.53 11.0964 14.0823 11.0964 13.53Z" fill="#B0B4C1"/>
<path fill-rule="evenodd" clip-rule="evenodd" d="M11.0964 16.23C11.0964 15.6777 11.5441 15.23 12.0965 15.23H12.1045C12.6569 15.23 13.1046 15.6777 13.1046 16.23C13.1046 16.7823 12.6569 17.23 12.1045 17.23H12.0965C11.5441 17.23 11.0964 16.7823 11.0964 16.23Z" fill="#B0B4C1"/>
<path fill-rule="evenodd" clip-rule="evenodd" d="M7.76515 13.53C7.76515 12.9777 8.21289 12.53 8.7652 12.53H8.77329C9.32561 12.53 9.77335 12.9777 9.77335 13.53C9.77335 14.0823 9.32561 14.53 8.77329 14.53H8.7652C8.21289 14.53 7.76515 14.0823 7.76515 13.53Z" fill="#B0B4C1"/>
<path fill-rule="evenodd" clip-rule="evenodd" d="M7.76515 16.23C7.76515 15.6777 8.21289 15.23 8.7652 15.23H8.77329C9.32561 15.23 9.77335 15.6777 9.77335 16.23C9.77335 16.7823 9.32561 17.23 8.77329 17.23H8.7652C8.21289 17.23 7.76515 16.7823 7.76515 16.23Z" fill="#B0B4C1"/>
</svg>
