<svg width="60" height="60" viewBox="0 0 60 60" fill="none" xmlns="http://www.w3.org/2000/svg">
<rect width="60" height="60" rx="30" fill="white"/>
<path d="M42.2013 28.3867C41.9564 28.3856 41.7203 28.2959 41.5364 28.1341C41.3526 27.9723 41.2335 27.7494 41.2013 27.5067C40.9983 25.5852 40.1423 23.7915 38.776 22.4253C37.4098 21.0591 35.6161 20.203 33.6946 20C33.5599 19.9915 33.4283 19.9558 33.3078 19.895C33.1872 19.8342 33.0801 19.7497 32.9931 19.6465C32.9061 19.5432 32.841 19.4234 32.8016 19.2943C32.7621 19.1652 32.7491 19.0295 32.7635 18.8952C32.7779 18.761 32.8194 18.6311 32.8854 18.5133C32.9514 18.3955 33.0405 18.2923 33.1474 18.2099C33.2544 18.1275 33.3769 18.0676 33.5076 18.0338C33.6383 18 33.7745 17.9931 33.908 18.0133C36.2914 18.2509 38.5203 19.3018 40.22 20.9894C41.9198 22.677 42.9867 24.8984 43.2414 27.28C43.2714 27.5434 43.1954 27.808 43.0304 28.0155C42.8654 28.223 42.6247 28.3566 42.3613 28.3867H42.2013Z" fill="#5078FF"/>
<path d="M37.9081 28.4C37.6771 28.3991 37.4533 28.3193 37.2738 28.1738C37.0944 28.0283 36.9701 27.8258 36.9214 27.6C36.7649 26.7617 36.3592 25.9901 35.7574 25.386C35.1556 24.7818 34.3857 24.3732 33.5481 24.2133C33.4119 24.197 33.2805 24.1529 33.1622 24.0837C33.0438 24.0144 32.9409 23.9216 32.8599 23.8109C32.7789 23.7002 32.7216 23.5741 32.6915 23.4403C32.6613 23.3066 32.659 23.168 32.6846 23.0333C32.7103 22.8986 32.7633 22.7706 32.8406 22.6573C32.9178 22.5439 33.0175 22.4477 33.1335 22.3746C33.2495 22.3014 33.3793 22.2529 33.5149 22.2321C33.6504 22.2112 33.7888 22.2184 33.9214 22.2533C35.1525 22.4853 36.2852 23.0825 37.1723 23.9671C38.0593 24.8517 38.6594 25.9829 38.8948 27.2133C38.9418 27.4747 38.8842 27.7441 38.7346 27.9636C38.585 28.183 38.3553 28.335 38.0948 28.3867L37.9081 28.4Z" fill="#5078FF"/>
<path d="M36.668 42.6667C33.668 42.6667 29.7614 40.2933 25.0681 35.6C20.3748 30.9066 17.9747 26.9733 18.0014 23.9733C17.9845 23.3295 18.1055 22.6895 18.3562 22.0962C18.6068 21.503 18.9813 20.9701 19.4546 20.5333L19.5748 20.4267C21.2814 18.7067 22.4681 18 23.5748 18C24.9081 18 25.9213 19.0267 27.1347 20.32L28.1081 21.32C28.7244 21.8532 29.1454 22.5766 29.3047 23.3758C29.4641 24.175 29.3526 25.0045 28.988 25.7333C28.5613 26.9466 28.1881 27.9866 30.4014 30.1866C32.6014 32.3866 33.6414 32.0266 34.8547 31.6C35.5825 31.2307 36.4132 31.1167 37.2136 31.2762C38.014 31.4358 38.7376 31.8598 39.2681 32.48L40.2548 33.44C41.5881 34.6666 42.5614 35.6266 42.5881 37.0133C42.5881 38.1733 41.8947 39.36 40.1614 41.0933L40.0547 41.2C39.6176 41.6737 39.0849 42.0494 38.4919 42.3022C37.899 42.555 37.2593 42.6792 36.6148 42.6667H36.668ZM20.8547 21.9733C20.5737 22.223 20.3514 22.5319 20.2038 22.8777C20.0563 23.2235 19.9872 23.5976 20.0014 23.9733C20.0014 25.6666 21.108 28.8 26.4813 34.1866C31.8547 39.5733 34.9747 40.6667 36.668 40.6667C37.0437 40.6809 37.4179 40.6117 37.7637 40.4642C38.1095 40.3167 38.4183 40.0944 38.668 39.8133L38.8814 39.6133C40.0414 38.44 40.6413 37.5733 40.6413 37.04C40.6413 36.5067 39.9215 35.8266 38.9348 34.8933L37.9081 33.8933C37.0014 32.9866 36.5748 33.1333 35.5614 33.4933C33.7481 34.12 31.8947 34.4533 29.0414 31.6C26.1747 28.7466 26.508 26.8933 27.148 25.0666C27.508 24.0533 27.6548 23.64 26.7481 22.7333L25.7348 21.6933C24.8148 20.72 24.1348 20.0133 23.6015 20C23.0548 20 22.1881 20.6 20.9348 21.84L20.8547 21.9733Z" fill="#5078FF"/>
</svg>
