<svg width="25" height="24" viewBox="0 0 25 24" fill="none" xmlns="http://www.w3.org/2000/svg">
<path fill-rule="evenodd" clip-rule="evenodd" d="M20.9967 4.43763C21.3073 4.71168 21.3369 5.18563 21.0628 5.49622L14.2667 13.1981C13.5988 13.955 12.4307 13.9914 11.7169 13.2777L8.96943 10.5303C8.67652 10.2374 8.67652 9.76257 8.96943 9.46968C9.26234 9.17679 9.73724 9.17679 10.0302 9.46968L12.7776 12.217C12.8796 12.319 13.0465 12.3138 13.1419 12.2056L19.938 4.50379C20.2121 4.1932 20.6861 4.16358 20.9967 4.43763Z" fill="white"/>
<path fill-rule="evenodd" clip-rule="evenodd" d="M14.6352 4.03111C12.9701 3.58497 11.207 3.67158 9.59361 4.27878C7.98021 4.88598 6.59755 5.98327 5.63981 7.41655C4.68208 8.84982 4.19737 10.5471 4.25378 12.2699C4.31018 13.9928 4.90486 15.6547 5.95429 17.0223C7.00373 18.3899 8.4552 19.3944 10.1049 19.8948C11.7545 20.3951 13.5195 20.3663 15.1519 19.8122C16.7843 19.2581 18.2021 18.2066 19.2062 16.8054C20.2103 15.4043 20.7503 13.7238 20.7503 12C20.7503 11.5858 21.0861 11.25 21.5004 11.25C21.9146 11.25 22.2504 11.5858 22.2504 12C22.2504 14.0372 21.6123 16.0232 20.4256 17.6792C19.2389 19.3351 17.5633 20.5777 15.6341 21.2326C13.7049 21.8874 11.619 21.9215 9.6694 21.3302C7.71981 20.7388 6.00443 19.5516 4.76419 17.9354C3.52395 16.3192 2.82115 14.3551 2.75449 12.319C2.68783 10.2829 3.26066 8.27706 4.39254 6.58319C5.52441 4.88932 7.15846 3.59252 9.0652 2.87492C10.9719 2.15732 13.0556 2.05496 15.0235 2.58222C15.4236 2.68943 15.661 3.10068 15.5538 3.50078C15.4466 3.90088 15.0353 4.13832 14.6352 4.03111Z" fill="white"/>
</svg>
