<svg width="25" height="25" viewBox="0 0 25 25" fill="none" xmlns="http://www.w3.org/2000/svg">
<path d="M5.99996 18.772C5.45682 18.7777 4.93166 18.5776 4.52999 18.212C4.28711 17.9684 4.10388 17.672 3.99459 17.3458C3.8853 17.0197 3.8529 16.6727 3.89999 16.332L4.22994 13.452C4.32825 12.8223 4.60209 12.2331 5.01998 11.752L12.32 4.02196C14.18 2.02196 16.12 2.02195 18.08 3.85195C18.5536 4.2286 18.9354 4.70779 19.197 5.25341C19.4585 5.79903 19.5929 6.39691 19.5899 7.00198C19.4653 8.00573 18.9909 8.93342 18.25 9.62197L10.95 17.352C10.498 17.8024 9.92469 18.1116 9.30001 18.242L6.43002 18.732C6.28778 18.7552 6.14405 18.7685 5.99996 18.772ZM13.41 5.05196L6.10995 12.782C5.9146 13.0305 5.78093 13.3218 5.71993 13.632L5.38998 16.502C5.36986 16.6115 5.3747 16.724 5.40414 16.8314C5.43357 16.9387 5.48688 17.0381 5.56002 17.122C5.64587 17.1909 5.74673 17.2385 5.85446 17.2611C5.96218 17.2837 6.07373 17.2806 6.18002 17.252L9.04 16.762C9.34151 16.6881 9.61982 16.5403 9.84994 16.332L17.16 8.59197C17.6513 8.14784 17.9817 7.55362 18.0999 6.90197C18.0925 6.51521 17.999 6.13496 17.826 5.78896C17.653 5.44297 17.4049 5.13995 17.0999 4.90197C15.5199 3.48197 14.52 3.90196 13.41 5.05196Z" fill="white"/>
<path d="M16.52 11.162H16.4501C15.0839 11.0274 13.8013 10.4426 12.8038 9.49949C11.8064 8.55636 11.1508 7.30843 10.94 5.95197C10.923 5.85523 10.9255 5.75604 10.9477 5.66035C10.9699 5.56465 11.0113 5.47442 11.0692 5.39506C11.1271 5.31569 11.2003 5.24882 11.2847 5.19846C11.369 5.1481 11.4627 5.11528 11.56 5.10196C11.7563 5.07023 11.957 5.11773 12.1183 5.23398C12.2795 5.35024 12.3881 5.52574 12.42 5.72196C12.581 6.75027 13.0788 7.69605 13.8353 8.41092C14.5918 9.1258 15.5642 9.56935 16.6 9.67197C16.7989 9.68258 16.9855 9.77177 17.1186 9.91993C17.2518 10.0681 17.3207 10.2631 17.31 10.462C17.2994 10.6609 17.2101 10.8474 17.062 10.9806C16.9138 11.1137 16.7189 11.1826 16.52 11.172V11.162Z" fill="white"/>
<path d="M19.75 21.652H3.74997C3.55106 21.652 3.36035 21.573 3.2197 21.4323C3.07904 21.2917 2.99997 21.1009 2.99997 20.902C2.99997 20.7031 3.07904 20.5123 3.2197 20.3716C3.36035 20.231 3.55106 20.152 3.74997 20.152H19.75C19.9489 20.152 20.1397 20.231 20.2804 20.3716C20.421 20.5123 20.5 20.7031 20.5 20.902C20.5 21.1009 20.421 21.2917 20.2804 21.4323C20.1397 21.573 19.9489 21.652 19.75 21.652Z" fill="white"/>
</svg>
