<svg width="85" height="85" viewBox="0 0 85 85" fill="none" xmlns="http://www.w3.org/2000/svg">
<path d="M81.6 0H3.4C1.51937 0 0 1.51937 0 3.4V81.6C0 83.4806 1.51937 85 3.4 85H81.6C83.4806 85 85 83.4806 85 81.6V3.4C85 1.51937 83.4806 0 81.6 0ZM71.7825 24.8094H64.9931C59.67 24.8094 58.6394 27.3381 58.6394 31.0569V38.2487C58.6394 38.801 59.0871 39.2487 59.6394 39.2487H70.2093C70.8125 39.2487 71.2784 39.7787 71.2011 40.3769L69.802 51.2013C69.7376 51.6999 69.313 52.0731 68.8103 52.0731H59.6394C59.0871 52.0731 58.6394 52.5208 58.6394 53.0731V84C58.6394 84.5523 58.1917 85 57.6394 85H46.39C45.8377 85 45.39 84.5523 45.39 84V53.0838C45.39 52.5315 44.9423 52.0837 44.39 52.0837H35.3081C34.7558 52.0837 34.3081 51.636 34.3081 51.0837V40.2487C34.3081 39.6965 34.7558 39.2487 35.3081 39.2487H44.39C44.9423 39.2487 45.39 38.801 45.39 38.2487V29.7925C45.39 18.8169 52.0944 12.835 61.8906 12.835C65.7669 12.835 69.1871 13.0739 70.9265 13.2469C71.4246 13.2965 71.7931 13.7184 71.7931 14.219V24.7987C71.7931 24.8046 71.7884 24.8094 71.7825 24.8094Z" fill="#1E3BD4"/>
</svg>
