<svg width="41" height="40" viewBox="0 0 41 40" fill="none" xmlns="http://www.w3.org/2000/svg">
<path fill-rule="evenodd" clip-rule="evenodd" d="M40.6823 20C40.6823 31.0457 31.728 40 20.6823 40C9.63651 40 0.682251 31.0457 0.682251 20C0.682251 8.95426 9.63651 0 20.6823 0C31.728 0 40.6823 8.95426 40.6823 20ZM29.1172 12.1322L9.83366 19.5671C8.51174 20.0846 8.53524 20.8154 9.60712 21.1564L14.5438 22.6961L25.9938 15.485C26.5259 15.1318 27.0188 15.332 26.6157 15.6868L17.3492 24.0584L16.9946 29.1471C17.5118 29.1471 17.7368 28.9217 18.0032 28.6556L20.4149 26.3322L25.4149 30.0171C26.3266 30.5339 26.9789 30.2669 27.222 29.1707L30.5056 13.7028C30.7938 12.3503 30.0126 11.8083 29.1172 12.1322Z" fill="white"/>
</svg>
