<svg width="263" height="40" viewBox="0 0 263 40" fill="none" xmlns="http://www.w3.org/2000/svg">
<g clip-path="url(#clip0_23_1375)">
<path fill-rule="evenodd" clip-rule="evenodd" d="M11.4339 5.71322C13.6828 5.71252 15.882 6.37505 17.7563 7.61789C19.6306 8.86074 21.0967 10.6287 21.9713 12.7006C22.8459 14.7725 23.09 17.0563 22.6732 19.2663C22.2564 21.4762 21.1971 23.5142 19.6279 25.1252C18.0587 26.7361 16.0493 27.8486 13.851 28.3233C11.6528 28.798 9.36336 28.614 7.26921 27.7941C5.17505 26.9743 3.36917 25.5551 2.07751 23.7141C0.78586 21.8731 0.0657971 19.6921 0.00742136 17.4439C0.131245 21.9337 2.01179 26.1957 5.24478 29.3136C8.47777 32.4316 12.8051 34.1565 17.2964 34.1176C21.7878 34.0788 26.0846 32.2792 29.2631 29.1057C32.4416 25.9323 34.2481 21.6384 34.2942 17.1471H0C0 17.2436 0 17.34 0 17.4365C0.139084 23.431 2.62784 29.1309 6.92989 33.3078C11.2319 37.4847 17.0028 39.804 22.9989 39.7661C28.9949 39.7281 34.736 37.3359 38.9848 33.1049C43.2337 28.8739 45.65 23.1429 45.7132 17.1471H34.2942C34.2942 12.5994 32.4876 8.23798 29.2719 5.02227C26.0562 1.80657 21.6948 0 17.1471 0C12.5994 0 8.23798 1.80657 5.02227 5.02227C1.80657 8.23798 6.77659e-08 12.5994 0 17.1471C0 14.1146 1.20464 11.2064 3.3489 9.06213C5.49317 6.91786 8.40142 5.71322 11.4339 5.71322Z" fill="white"/>
<path d="M57.1471 24.0326C57.9074 24.5614 58.757 24.9485 59.655 25.1752C60.6619 25.4741 61.7061 25.629 62.7564 25.6352C63.5549 25.6768 64.3528 25.5426 65.0937 25.242C65.3227 25.1607 65.5222 25.0126 65.6663 24.8169C65.8105 24.6212 65.8927 24.3867 65.9024 24.1439C65.9008 23.9434 65.842 23.7475 65.7329 23.5793C65.6238 23.411 65.469 23.2774 65.2866 23.1941C64.6817 22.8971 64.0369 22.6896 63.3723 22.5783L62.0738 22.3186C60.6933 22.0916 59.3848 21.5454 58.2526 20.7234C57.7993 20.355 57.4394 19.8848 57.2021 19.351C56.9649 18.8172 56.8571 18.2349 56.8874 17.6516C56.8804 16.7318 57.2073 15.8407 57.8074 15.1437C58.4837 14.368 59.347 13.7781 60.3153 13.4297C61.4275 13.0119 62.6072 12.8031 63.7952 12.8139C66.1695 12.8139 67.9503 13.2912 69.1374 14.2459V17.4958C68.4418 17.0018 67.6588 16.6442 66.8299 16.4421C65.9039 16.1872 64.9485 16.055 63.9881 16.0489C63.2276 16.0242 62.47 16.1555 61.7622 16.4347C61.176 16.687 60.8792 17.0431 60.8792 17.4958C60.8774 17.6799 60.9308 17.8604 61.0327 18.0139C61.1346 18.1673 61.2801 18.2866 61.4506 18.3564C62.0653 18.6177 62.7074 18.8094 63.3649 18.9278L64.6188 19.1726C66.0292 19.3846 67.365 19.9429 68.5068 20.7975C68.9603 21.1641 69.3224 21.6311 69.5645 22.1616C69.8066 22.6921 69.922 23.2717 69.9017 23.8545C69.9183 24.8006 69.6295 25.7269 69.0781 26.4959C68.4835 27.2939 67.6723 27.9043 66.7409 28.2544C65.6243 28.6842 64.4349 28.8933 63.2387 28.8703C61.9885 28.8908 60.7411 28.7461 59.5288 28.4399C58.6777 28.2534 57.8728 27.8976 57.1619 27.3937V24.0326H57.1471ZM83.6802 17.1693V28.5883H80.1113V27.0227C79.6905 27.5647 79.1626 28.0143 78.5606 28.3435C77.8881 28.7037 77.1344 28.8851 76.3717 28.8703C75.2599 28.9235 74.1703 28.5462 73.3296 27.8167C72.9341 27.4346 72.6259 26.9716 72.4261 26.4593C72.2264 25.9471 72.1397 25.3976 72.1721 24.8488V17.1693H75.882V23.6764C75.882 25.0565 76.5869 25.7465 77.9967 25.7465C78.3628 25.7489 78.7267 25.6887 79.0725 25.5685C79.3975 25.4644 79.6927 25.2837 79.9332 25.0417V17.1693H83.6802ZM93.6227 28.5883H89.7941L85.3422 17.1693H89.3266L91.7677 24.2552L94.2089 17.1693H98.0152L93.5633 28.5883H93.6227ZM105.034 28.8703C103.926 28.8861 102.831 28.6315 101.844 28.1283C100.898 27.6405 100.101 26.9076 99.5363 26.0062C98.9589 25.0681 98.6627 23.9839 98.683 22.8825C98.6637 21.7882 98.9599 20.7115 99.5363 19.781C100.1 18.8783 100.897 18.1449 101.844 17.659C102.831 17.1561 103.926 16.9014 105.034 16.917C105.764 16.9082 106.492 17.0057 107.193 17.2064C107.733 17.3505 108.238 17.6029 108.677 17.9484V22.0366H106.259V19.8849C106.061 19.8747 105.863 19.8747 105.665 19.8849C104.817 19.8573 103.99 20.1455 103.343 20.6937C103.047 20.9763 102.811 21.316 102.65 21.6922C102.49 22.0684 102.407 22.4734 102.407 22.8825C102.407 23.2917 102.49 23.6966 102.65 24.0728C102.811 24.449 103.047 24.7887 103.343 25.0713C103.989 25.6216 104.817 25.9124 105.665 25.8875C106.745 25.887 107.798 25.5499 108.677 24.923V27.8463C108.219 28.1881 107.701 28.4399 107.149 28.5883C106.451 28.7833 105.729 28.8782 105.005 28.8703H105.034ZM111.549 28.5883V12.5913H115.259V18.5271C115.695 18.0497 116.216 17.6572 116.795 17.3696C117.433 17.0618 118.134 16.9068 118.842 16.917C119.958 16.8662 121.049 17.246 121.892 17.978C122.285 18.3616 122.591 18.8251 122.789 19.3371C122.988 19.8491 123.074 20.3977 123.042 20.9459V28.6254H119.332V22.0886C119.353 21.8074 119.317 21.5247 119.225 21.2581C119.133 20.9914 118.988 20.7463 118.798 20.5379C118.36 20.1688 117.797 19.9828 117.225 20.0185C116.869 20.0038 116.513 20.062 116.18 20.1896C115.847 20.3172 115.544 20.5115 115.288 20.7604V28.6625L111.549 28.5883ZM130.373 28.5883H126.663V17.1693H130.373V28.5883ZM128.399 11.8938C128.946 11.881 129.477 12.0774 129.883 12.4429C130.073 12.6154 130.224 12.8256 130.328 13.06C130.432 13.2945 130.485 13.548 130.485 13.8044C130.485 14.0608 130.432 14.3143 130.328 14.5488C130.224 14.7833 130.073 14.9935 129.883 15.1659C129.477 15.5314 128.946 15.7279 128.399 15.715C127.852 15.7325 127.319 15.5355 126.915 15.1659C126.723 14.9947 126.57 14.7849 126.465 14.5503C126.36 14.3157 126.306 14.0615 126.306 13.8044C126.306 13.5473 126.36 13.2932 126.465 13.0585C126.57 12.8239 126.723 12.6141 126.915 12.4429C127.319 12.0734 127.852 11.8763 128.399 11.8938ZM137.785 28.5883H134.075V12.5913H137.785V28.5883ZM152.625 28.388C152.396 28.5336 152.146 28.6414 151.883 28.707C151.48 28.8213 151.062 28.8762 150.644 28.8703C150.035 28.8807 149.432 28.7459 148.885 28.477C148.406 28.247 148.028 27.848 147.824 27.3566C147.4 27.8737 146.856 28.2793 146.239 28.5379C145.622 28.7965 144.951 28.9005 144.285 28.8406C143.542 28.8499 142.807 28.6927 142.133 28.3806C141.515 28.0983 140.986 27.6517 140.605 27.0895C140.231 26.5522 140.033 25.9115 140.041 25.2568C140.014 24.704 140.142 24.1547 140.411 23.6709C140.68 23.1871 141.078 22.7881 141.562 22.5189C142.706 21.8764 144.005 21.5607 145.316 21.6063C146.111 21.6005 146.904 21.6952 147.676 21.8883V21.406C147.683 21.1382 147.619 20.8734 147.488 20.6396C147.357 20.4058 147.166 20.2116 146.934 20.0778C146.333 19.7482 145.652 19.5915 144.968 19.6252C144.265 19.6258 143.567 19.7334 142.897 19.9443C142.223 20.1515 141.59 20.4755 141.028 20.9014V17.9335C141.675 17.5683 142.372 17.3008 143.098 17.1396C143.947 16.9302 144.82 16.8256 145.695 16.828C147.175 16.7415 148.64 17.1687 149.842 18.0374C150.331 18.438 150.719 18.9471 150.977 19.5241C151.235 20.1011 151.354 20.7302 151.326 21.3615V25.4572C151.317 25.5583 151.333 25.6602 151.373 25.7536C151.413 25.8469 151.476 25.9286 151.556 25.9914C151.727 26.1056 151.93 26.1628 152.135 26.1546C152.312 26.1635 152.488 26.1278 152.647 26.0507V28.3361L152.625 28.388ZM143.728 25.0788C143.725 25.2544 143.766 25.4281 143.849 25.5828C143.933 25.7376 144.055 25.8681 144.203 25.9617C144.573 26.1943 145.006 26.3082 145.442 26.2882C145.854 26.2931 146.262 26.2095 146.638 26.0431C147.014 25.8767 147.351 25.6313 147.624 25.3236V24.0474C147.038 23.8801 146.43 23.7976 145.821 23.8026C145.31 23.7902 144.803 23.8916 144.337 24.0993C144.147 24.1806 143.986 24.3179 143.876 24.4929C143.766 24.6679 143.712 24.8723 143.721 25.0788H143.728ZM155.125 19.5807H152.81V17.1619H158.694V19.1429C158.953 18.5148 159.398 17.9812 159.97 17.6145C160.62 17.2052 161.377 17.0009 162.144 17.0283C162.475 17.0141 162.806 17.0671 163.116 17.1841V20.4414C162.649 20.3197 162.167 20.2599 161.684 20.2633C160.663 20.1906 159.653 20.5209 158.872 21.1834V28.5586H155.162V19.5881L155.125 19.5807ZM171.07 28.5809V19.5881H168.718V17.1693H174.654V18.7126C175.051 18.1756 175.557 17.7282 176.138 17.3993C176.784 17.048 177.51 16.8692 178.245 16.8799C178.969 16.8617 179.685 17.0331 180.323 17.377C180.881 17.683 181.343 18.1375 181.658 18.6903C182.096 18.1172 182.665 17.6571 183.316 17.3486C183.968 17.0401 184.685 16.8921 185.405 16.917C186.522 16.8673 187.616 17.2469 188.462 17.978C188.859 18.3502 189.169 18.8049 189.37 19.3101C189.571 19.8153 189.659 20.3585 189.627 20.9014V28.6254H185.917V21.866C185.934 21.6175 185.898 21.3684 185.812 21.1346C185.726 20.9008 185.593 20.6874 185.42 20.5082C185.24 20.3395 185.027 20.2091 184.795 20.1249C184.563 20.0407 184.316 20.0045 184.07 20.0185C183.732 20.0012 183.394 20.0529 183.076 20.1702C182.758 20.2876 182.468 20.4682 182.222 20.7011V28.6254H178.512V21.866C178.527 21.6189 178.492 21.3712 178.41 21.1379C178.327 20.9046 178.198 20.6904 178.03 20.5082C177.851 20.3397 177.64 20.2094 177.409 20.1252C177.178 20.041 176.932 20.0047 176.687 20.0185C176.009 19.9885 175.345 20.2256 174.84 20.6788V28.6254L171.07 28.5809ZM204.348 28.3806C204.12 28.5271 203.869 28.6349 203.606 28.6996C203.203 28.8138 202.786 28.8688 202.367 28.8629C201.756 28.8724 201.151 28.7377 200.601 28.4696C200.123 28.2393 199.748 27.8401 199.547 27.3492C199.122 27.8653 198.578 28.2701 197.961 28.5287C197.345 28.7872 196.674 28.8917 196.008 28.8332C195.263 28.8426 194.525 28.6854 193.849 28.3731C193.233 28.088 192.705 27.642 192.321 27.0821C191.952 26.5424 191.758 25.9028 191.764 25.2494C191.733 24.7004 191.856 24.1537 192.118 23.6702C192.38 23.1868 192.771 22.7856 193.248 22.5115C194.395 21.8702 195.696 21.5546 197.01 21.5989C197.803 21.5931 198.593 21.6878 199.362 21.8808V21.3985C199.37 21.1308 199.305 20.866 199.174 20.6322C199.043 20.3983 198.852 20.2042 198.62 20.0704C198.019 19.7408 197.338 19.5841 196.654 19.6178C195.951 19.6184 195.253 19.726 194.584 19.9369C193.909 20.1441 193.276 20.4681 192.714 20.894V17.9261C193.361 17.5609 194.059 17.2933 194.784 17.1322C195.631 16.9228 196.501 16.8181 197.373 16.8205C198.854 16.7316 200.32 17.1591 201.521 18.03C202.011 18.4295 202.4 18.9383 202.658 19.5156C202.916 20.0929 203.035 20.7225 203.005 21.354V25.4497C202.997 25.5515 203.015 25.6536 203.056 25.7468C203.098 25.8401 203.162 25.9216 203.242 25.984C203.412 26.1006 203.616 26.158 203.821 26.1472C203.995 26.1561 204.169 26.1204 204.326 26.0433V28.3286L204.348 28.3806ZM195.489 25.0788C195.486 25.2535 195.527 25.4262 195.608 25.5806C195.69 25.7351 195.81 25.8662 195.956 25.9617C196.33 26.1911 196.764 26.3046 197.203 26.2882C197.613 26.2925 198.02 26.2087 198.395 26.0422C198.77 25.8758 199.105 25.6307 199.377 25.3236V24.0474C198.79 23.8801 198.183 23.7976 197.574 23.8026C197.063 23.7892 196.556 23.8906 196.09 24.0993C195.899 24.1797 195.738 24.3168 195.628 24.492C195.517 24.6672 195.464 24.8721 195.474 25.0788H195.489ZM206.24 12.5839H209.95V21.1908H211.515L214.127 17.1619H218.067L214.595 22.5041L218.357 28.5809H214.194L211.471 24.0474H209.95V28.5809H206.24V12.5913V12.5839ZM224.589 24.3368C224.569 24.5559 224.598 24.7768 224.673 24.9834C224.749 25.19 224.87 25.3772 225.027 25.5314C225.367 25.8087 225.798 25.949 226.236 25.9246C226.652 25.9507 227.067 25.8743 227.446 25.702V28.4547C227.148 28.6015 226.831 28.704 226.503 28.759C226.106 28.8448 225.701 28.8896 225.294 28.8925C224.11 28.9645 222.942 28.5884 222.022 27.8389C221.616 27.4407 221.301 26.9593 221.098 26.4277C220.896 25.8962 220.811 25.3272 220.85 24.7597V19.9591H219.002V17.1693H220.85V14.2459H224.559V17.1693H227.416V19.9591H224.559V24.3368H224.589ZM241.655 28.4102C241.426 28.5554 241.175 28.6631 240.913 28.7293C240.507 28.844 240.087 28.899 239.666 28.8925C239.057 28.9029 238.454 28.7681 237.908 28.4993C237.43 28.2689 237.055 27.8698 236.854 27.3789C236.429 27.895 235.884 28.2998 235.268 28.5584C234.651 28.8169 233.981 28.9214 233.315 28.8629C232.57 28.8723 231.832 28.7151 231.156 28.4028C230.539 28.1177 230.011 27.6717 229.627 27.1118C229.259 26.5721 229.065 25.9325 229.071 25.2791C229.04 24.73 229.163 24.1833 229.425 23.6999C229.687 23.2164 230.078 22.8153 230.555 22.5412C231.701 21.8981 233.003 21.5824 234.316 21.6286C235.109 21.6228 235.9 21.7175 236.669 21.9105V21.4282C236.676 21.1605 236.611 20.8957 236.481 20.6618C236.35 20.428 236.159 20.2339 235.927 20.1001C235.326 19.7705 234.645 19.6138 233.96 19.6475C233.258 19.6481 232.56 19.7557 231.89 19.9665C231.216 20.1738 230.583 20.4977 230.02 20.9237V17.9558C230.668 17.5906 231.365 17.323 232.091 17.1619C232.938 16.9525 233.807 16.8478 234.68 16.8502C236.161 16.7613 237.627 17.1887 238.828 18.0596C239.318 18.4592 239.707 18.968 239.965 19.5453C240.223 20.1225 240.341 20.7522 240.312 21.3837V25.4794C240.304 25.5812 240.321 25.6833 240.363 25.7765C240.404 25.8698 240.468 25.9513 240.549 26.0137C240.719 26.1303 240.922 26.1877 241.128 26.1769C241.302 26.1858 241.476 26.1501 241.632 26.073V28.3583L241.655 28.4102ZM232.766 25.0788C232.764 25.254 232.807 25.4269 232.89 25.5813C232.973 25.7357 233.093 25.8666 233.241 25.9617C233.615 26.1911 234.048 26.3046 234.487 26.2882C234.897 26.2925 235.304 26.2087 235.679 26.0422C236.054 25.8758 236.389 25.6307 236.661 25.3236V24.0474C236.075 23.8801 235.468 23.7976 234.858 23.8026C234.348 23.7912 233.841 23.8925 233.374 24.0993C233.184 24.1806 233.023 24.3179 232.913 24.4929C232.803 24.6679 232.749 24.8723 232.758 25.0788H232.766ZM243.524 12.5839H247.234V18.4603C247.595 17.99 248.053 17.6028 248.577 17.3251C249.175 17.016 249.841 16.8604 250.514 16.8725C251.44 16.8665 252.348 17.1238 253.133 17.6145C253.926 18.1262 254.565 18.8445 254.98 19.692C255.43 20.6942 255.663 21.7803 255.663 22.8788C255.663 23.9773 255.43 25.0634 254.98 26.0656C254.569 26.9178 253.929 27.6394 253.133 28.1506C252.349 28.6443 251.44 28.9019 250.514 28.8925C249.826 28.9132 249.145 28.7535 248.539 28.4293C247.932 28.1052 247.421 27.6279 247.056 27.045V28.6106H243.495L243.524 12.5839ZM247.234 25.0565C247.845 25.6031 248.641 25.8951 249.46 25.8727C249.8 25.8815 250.137 25.8125 250.445 25.671C250.754 25.5295 251.026 25.3193 251.241 25.0565C251.672 24.4079 251.902 23.6464 251.902 22.8677C251.902 22.0889 251.672 21.3275 251.241 20.6788C251.025 20.4174 250.753 20.2086 250.444 20.0684C250.136 19.9282 249.799 19.8604 249.46 19.8701C248.642 19.8449 247.845 20.1343 247.234 20.6788V25.0565ZM262.571 28.5883H258.861V17.1693H262.571V28.5883ZM260.59 11.8864C261.137 11.8763 261.668 12.0753 262.074 12.4429C262.264 12.6154 262.415 12.8256 262.519 13.06C262.622 13.2945 262.676 13.548 262.676 13.8044C262.676 14.0608 262.622 14.3143 262.519 14.5488C262.415 14.7833 262.264 14.9935 262.074 15.1659C261.667 15.5314 261.136 15.7279 260.59 15.715C260.043 15.7325 259.51 15.5355 259.106 15.1659C258.914 14.9947 258.761 14.7849 258.656 14.5503C258.551 14.3157 258.496 14.0615 258.496 13.8044C258.496 13.5473 258.551 13.2932 258.656 13.0585C258.761 12.8239 258.914 12.6141 259.106 12.4429C259.506 12.075 260.032 11.8756 260.575 11.8864H260.59Z" fill="white"/>
</g>
<defs>
<clipPath id="clip0_23_1375">
<rect width="262.682" height="40" fill="white"/>
</clipPath>
</defs>
</svg>
