<svg width="41" height="40" viewBox="0 0 41 40" fill="none" xmlns="http://www.w3.org/2000/svg">
<path d="M24.5104 20C24.5104 22.1141 22.7963 23.8281 20.6823 23.8281C18.5682 23.8281 16.8541 22.1141 16.8541 20C16.8541 17.8859 18.5682 16.1719 20.6823 16.1719C22.7963 16.1719 24.5104 17.8859 24.5104 20Z" fill="white"/>
<path d="M29.6347 13.2266C29.4503 12.7282 29.1574 12.2766 28.7753 11.9063C28.405 11.525 27.9535 11.2313 27.455 11.0469C27.0503 10.8899 26.4425 10.7024 25.323 10.6516C24.112 10.5961 23.7488 10.5844 20.6823 10.5844C17.6159 10.5844 17.2527 10.5961 16.0417 10.6516C14.9222 10.7032 14.3136 10.8899 13.9097 11.0469C13.4105 11.2313 12.9597 11.5243 12.5894 11.9063C12.2081 12.2766 11.9144 12.7282 11.73 13.2266C11.573 13.6313 11.3855 14.2391 11.3347 15.3594C11.2792 16.5703 11.2675 16.9336 11.2675 20C11.2675 23.0664 11.2792 23.4297 11.3347 24.6406C11.3855 25.7602 11.573 26.368 11.73 26.7727C11.9144 27.2719 12.2073 27.7227 12.5894 28.093C12.9597 28.4742 13.4112 28.768 13.9097 28.9523C14.3144 29.1102 14.9222 29.2969 16.0425 29.3477C17.2534 29.4031 17.6159 29.4148 20.6831 29.4148C23.7503 29.4148 24.1136 29.4031 25.3238 29.3477C26.4433 29.2969 27.0519 29.1094 27.4566 28.9523C28.4581 28.5656 29.2496 27.7742 29.6363 26.7727C29.7933 26.368 29.9808 25.7602 30.0316 24.6406C30.0871 23.4297 30.0988 23.0664 30.0988 20C30.0988 16.9336 30.0871 16.5703 30.0316 15.3594C29.9792 14.2399 29.7925 13.6313 29.6347 13.2266ZM20.6823 25.8969C17.4253 25.8969 14.7847 23.257 14.7847 20C14.7847 16.743 17.4253 14.1032 20.6823 14.1032C23.9394 14.1032 26.5792 16.743 26.5792 20C26.5792 23.257 23.9394 25.8969 20.6823 25.8969ZM26.8128 15.2477C26.0519 15.2477 25.4347 14.6305 25.4347 13.8696C25.4347 13.1086 26.0519 12.4914 26.8128 12.4914C27.5738 12.4914 28.191 13.1086 28.191 13.8696C28.191 14.6305 27.5738 15.2477 26.8128 15.2477Z" fill="white"/>
<path d="M20.6823 0C9.6385 0 0.682251 8.95625 0.682251 20C0.682251 31.0437 9.6385 40 20.6823 40C31.726 40 40.6823 31.0437 40.6823 20C40.6823 8.95625 31.726 0 20.6823 0ZM32.0971 24.7352C32.0416 25.9578 31.8471 26.7922 31.5635 27.5227C30.9666 29.0656 29.7471 30.2852 28.2049 30.8812C27.4744 31.1648 26.6393 31.3594 25.4174 31.4148C24.1924 31.4711 23.8018 31.4844 20.6823 31.4844C17.5627 31.4844 17.1721 31.4711 15.9471 31.4148C14.7252 31.3594 13.8901 31.1648 13.1596 30.8812C12.3932 30.593 11.6987 30.1406 11.1252 29.5562C10.5408 28.9828 10.0893 28.2883 9.801 27.5219C9.51741 26.7914 9.32288 25.9563 9.26741 24.7344C9.21116 23.5102 9.19788 23.1187 9.19788 20C9.19788 16.8812 9.21116 16.4898 9.26741 15.2648C9.32288 14.0422 9.51741 13.2078 9.801 12.4773C10.0893 11.7109 10.5416 11.0164 11.126 10.443C11.6994 9.85859 12.394 9.40625 13.1604 9.11797C13.8908 8.83437 14.726 8.63984 15.9479 8.58437C17.1729 8.52891 17.5635 8.51484 20.683 8.51484C23.8026 8.51484 24.1932 8.52812 25.4182 8.58437C26.6408 8.63984 27.4752 8.83437 28.2057 9.11719C28.9721 9.40547 29.6666 9.85781 30.2401 10.4422C30.8244 11.0156 31.2768 11.7102 31.5643 12.4766C31.8487 13.207 32.0424 14.0422 32.0987 15.2641C32.1541 16.4891 32.1674 16.8797 32.1674 19.9992C32.1674 23.1187 32.1533 23.5102 32.0971 24.7352Z" fill="white"/>
</svg>
