<svg width="25" height="24" viewBox="0 0 25 24" fill="none" xmlns="http://www.w3.org/2000/svg">
<path d="M6.77068 21H6.77063H4.37061H4.34411L4.31775 21.0028C3.93339 21.0437 3.54493 20.9923 3.18463 20.853C2.96446 20.7397 2.78398 20.5622 2.66709 20.3438C2.52916 19.9799 2.47803 19.5887 2.51799 19.2013L2.52063 19.1758V19.15V17.42V17.3892L2.51685 17.3587C2.49557 17.1865 2.49444 17.0125 2.51348 16.8401C2.54285 16.7286 2.58852 16.622 2.64904 16.5239C2.75145 16.3756 2.86968 16.2387 3.00161 16.1157L3.00801 16.1097L3.0142 16.1036L8.11536 11.0024C8.23301 10.8957 8.34539 10.783 8.45193 10.665L8.55383 10.552L8.57556 10.4014C8.61399 10.1352 8.61399 9.86482 8.57556 9.59859L8.57561 9.59858L8.57454 9.59185C8.5306 9.3142 8.50919 9.0335 8.51062 8.75254H8.51062V8.75C8.51062 7.51387 8.87717 6.3055 9.56393 5.27769C10.2507 4.24989 11.2268 3.44881 12.3688 2.97576C13.5109 2.50272 14.7676 2.37893 15.98 2.62009C17.1923 2.86125 18.3059 3.45652 19.18 4.3306C20.0541 5.2047 20.6494 6.31835 20.8906 7.53071C21.1317 8.74308 21.0079 9.99974 20.5349 11.1418C20.0618 12.2838 19.2608 13.2599 18.233 13.9467C17.2052 14.6334 15.9968 15 14.7606 15H14.7602C14.4831 15.0002 14.2064 14.9819 13.9318 14.9451C13.7172 14.9123 13.5009 14.8907 13.284 14.8806L13.1454 14.8741L13.0233 14.9399C12.8293 15.0445 12.6562 15.1838 12.5127 15.3509L10.9371 16.9265L10.9369 16.9267C10.8901 16.9735 10.8265 16.9999 10.7602 17H9.51062H9.01062V17.5V18.75H9.01058L9.01067 18.7568C9.01111 18.789 9.0051 18.8208 8.99307 18.8504C8.98102 18.8801 8.9631 18.9071 8.94039 18.9298C8.91774 18.9525 8.89074 18.9704 8.861 18.9824C8.83137 18.9945 8.79957 19.0005 8.76742 19L8.76742 19H8.76062H7.51062H7.01062V19.5V20.75H7.01058L7.01067 20.7568C7.0111 20.7889 7.00518 20.8204 6.99343 20.8496C6.98162 20.879 6.96401 20.9058 6.94157 20.9286C6.91927 20.9512 6.89266 20.9692 6.86328 20.9814C6.83402 20.9937 6.80254 21 6.77068 21ZM13.9212 2.92001L13.9886 3.05469C12.7534 3.22614 11.5994 3.79537 10.7077 4.68707C9.63389 5.7609 9.02768 7.2152 9.02068 8.73342C9.00506 8.98609 9.00538 9.23953 9.02167 9.49218L9.02382 9.52551L9.03038 9.55826C9.08662 9.83892 9.10756 10.1254 9.09264 10.4111C9.07152 10.5516 9.02424 10.687 8.95322 10.8103C8.82898 11.0052 8.67735 11.181 8.50293 11.3324L8.48961 11.344L8.47714 11.3565L3.36715 16.4665L3.35915 16.4745L3.35152 16.4828L3.14144 16.7128L3.0406 16.8232L3.01693 16.9709C2.99062 17.1349 2.98852 17.3019 3.01062 17.4664V19.1185C2.98872 19.38 2.98937 19.6429 3.01258 19.9042L3.02154 20.0051L3.06906 20.0946C3.14741 20.2421 3.27462 20.3578 3.42905 20.4219L3.49987 20.4512L3.57623 20.458C3.83436 20.481 4.09406 20.4817 4.35228 20.46H5.98059H6.48059V19.96V18.7142C6.48208 18.6473 6.50932 18.5835 6.55668 18.5361C6.60405 18.4887 6.66784 18.4615 6.73475 18.46H7.98059H8.48059V17.96V16.7141C8.48209 16.6472 8.50932 16.5835 8.55668 16.5361C8.60404 16.4888 8.66782 16.4615 8.73471 16.46H10.4207H10.6278L10.7742 16.3136L12.1342 14.9536L12.1414 14.9463L12.1484 14.9388C12.3101 14.7633 12.4926 14.6081 12.6918 14.4767C12.8117 14.4095 12.9432 14.3657 13.0795 14.3478C13.3628 14.3284 13.6476 14.3489 13.9253 14.4088L13.9613 14.4165L13.9981 14.419C14.2474 14.4352 14.4975 14.4356 14.7469 14.42C16.266 14.4157 17.7221 13.8104 18.7965 12.7359C19.8749 11.6575 20.4806 10.195 20.4806 8.67001C20.4806 7.14504 19.8749 5.6825 18.7965 4.60415C17.7182 3.52581 16.2556 2.92001 14.7306 2.92001H13.9212ZM16.7774 9.00005L16.7774 9H16.7706C16.7044 9 16.6408 8.97369 16.5939 8.92678C16.547 8.87983 16.5206 8.81621 16.5206 8.75C16.5206 8.2859 16.3363 7.84077 16.0081 7.51257C15.6799 7.18437 15.2348 7 14.7706 7C14.7044 7 14.6408 6.97369 14.5939 6.92678C14.547 6.87983 14.5206 6.81621 14.5206 6.75C14.5206 6.68381 14.5469 6.62021 14.5939 6.57325C14.6409 6.5263 14.7044 6.5 14.7706 6.5C15.3674 6.5 15.9397 6.73707 16.3617 7.15903C16.7836 7.58098 17.0206 8.15325 17.0206 8.75H17.0206L17.0207 8.7568C17.0211 8.78897 17.0151 8.82079 17.0031 8.85041C16.991 8.88007 16.9731 8.90709 16.9504 8.9298C16.9278 8.95245 16.9008 8.97036 16.871 8.98245C16.8414 8.99449 16.8096 9.00048 16.7774 9.00005Z" fill="#040D1A" stroke="#B0B4C1"/>
</svg>
