<svg width="60" height="60" viewBox="0 0 60 60" fill="none" xmlns="http://www.w3.org/2000/svg">
<rect width="60" height="60" rx="30" fill="white"/>
<path fill-rule="evenodd" clip-rule="evenodd" d="M29.6667 20C29.3287 20 28.9889 20.1421 27.7287 20.7722L22.3954 23.4389C21.6598 23.8067 21.1763 24.0499 20.8215 24.2756C20.4863 24.4889 20.3408 24.6417 20.2489 24.7904C20.157 24.9392 20.0853 25.1376 20.0445 25.5328C20.0012 25.9511 20 26.4924 20 27.3148V34.6852C20 35.9706 20.0021 36.834 20.0887 37.4781C20.1714 38.0933 20.3144 38.3567 20.4882 38.5304C20.6619 38.7042 20.9252 38.8471 21.5405 38.9299C22.1846 39.0165 23.048 39.0186 24.3333 39.0186H35C36.2854 39.0186 37.1488 39.0165 37.7928 38.9299C38.4081 38.8471 38.6714 38.7042 38.8452 38.5304C39.0189 38.3567 39.1619 38.0933 39.2446 37.4781C39.3312 36.834 39.3333 35.9706 39.3333 34.6852V27.3148C39.3333 26.4924 39.3321 25.9511 39.2889 25.5328C39.248 25.1376 39.1763 24.9392 39.0844 24.7904C38.9925 24.6417 38.8471 24.4889 38.5118 24.2756C38.1571 24.0499 37.6735 23.8067 36.9379 23.4389L31.6046 20.7722C30.3444 20.1421 30.0047 20 29.6667 20ZM27.0084 18.8962C28.0056 18.3962 28.7957 18 29.6667 18C30.5376 18 31.3278 18.3962 32.3249 18.8962C32.3822 18.9249 32.4403 18.954 32.499 18.9834L37.8764 21.6721C38.5561 22.0119 39.1332 22.3004 39.5855 22.5882C40.0671 22.8946 40.4794 23.2433 40.7857 23.739C41.0921 24.2347 41.2195 24.7594 41.2782 25.3271C41.3334 25.8604 41.3334 26.5056 41.3333 27.2656V34.7546C41.3334 35.9525 41.3334 36.9515 41.2268 37.7445C41.1142 38.5816 40.8667 39.3373 40.2594 39.9446C39.6521 40.5519 38.8964 40.7995 38.0593 40.912C37.2663 41.0187 36.2673 41.0186 35.0693 41.0186H24.264C23.066 41.0186 22.0671 41.0187 21.274 40.912C20.437 40.7995 19.6812 40.5519 19.0739 39.9446C18.4667 39.3373 18.2191 38.5816 18.1066 37.7445C17.9999 36.9515 18 35.9526 18 34.7546L18 27.2656C18 26.5056 18 25.8604 18.0551 25.3271C18.1138 24.7594 18.2413 24.2347 18.5476 23.739C18.854 23.2433 19.2663 22.8946 19.7478 22.5882C20.2001 22.3004 20.7773 22.0119 21.457 21.672C21.4716 21.6647 21.4863 21.6574 21.501 21.6501L26.8343 18.9834C26.8931 18.954 26.9511 18.9249 27.0084 18.8962Z" fill="#5078FF"/>
<path fill-rule="evenodd" clip-rule="evenodd" d="M24.1046 29.6853C23.6625 29.6853 23.2386 29.5097 22.9261 29.1971L19.7071 25.9782C19.3166 25.5877 18.6834 25.5877 18.2929 25.9782C17.9024 26.3687 17.9024 27.0019 18.2929 27.3924L21.5118 30.6114C22.1995 31.299 23.1321 31.6853 24.1046 31.6853H35.2288C36.2012 31.6853 37.1339 31.299 37.8215 30.6114L41.0404 27.3924C41.431 27.0019 41.431 26.3687 41.0404 25.9782C40.6499 25.5877 40.0168 25.5877 39.6262 25.9782L36.4073 29.1971C36.0947 29.5097 35.6708 29.6853 35.2288 29.6853H24.1046Z" fill="#5078FF"/>
</svg>
