<svg viewBox="0 0 263 40" fill="none" xmlns="http://www.w3.org/2000/svg">
<g clip-path="url(#clip0_1_3)">
<path fill-rule="evenodd" clip-rule="evenodd" d="M11.4339 5.71322C13.6828 5.71252 15.882 6.37504 17.7563 7.61789C19.6306 8.86073 21.0967 10.6287 21.9713 12.7006C22.8459 14.7725 23.09 17.0563 22.6732 19.2663C22.2564 21.4762 21.1971 23.5142 19.6279 25.1252C18.0587 26.7361 16.0493 27.8486 13.851 28.3233C11.6528 28.798 9.36336 28.614 7.26921 27.7941C5.17505 26.9743 3.36917 25.5551 2.07751 23.7141C0.78586 21.8731 0.0657971 19.6921 0.00742136 17.4439C0.131245 21.9337 2.01179 26.1957 5.24478 29.3136C8.47777 32.4316 12.8051 34.1565 17.2964 34.1176C21.7878 34.0788 26.0846 32.2792 29.2631 29.1057C32.4416 25.9323 34.2481 21.6384 34.2942 17.1471H0C0 17.2436 0 17.34 0 17.4365C0.139084 23.431 2.62784 29.1309 6.92989 33.3078C11.2319 37.4847 17.0028 39.804 22.9989 39.7661C28.9949 39.7281 34.736 37.3359 38.9848 33.1049C43.2337 28.8739 45.65 23.1429 45.7132 17.1471H34.2942C34.2942 12.5994 32.4876 8.23797 29.2719 5.02227C26.0562 1.80656 21.6948 -3.8147e-06 17.1471 -3.8147e-06C12.5994 -3.8147e-06 8.23797 1.80656 5.02227 5.02227C1.80657 8.23797 6.77659e-08 12.5994 0 17.1471C0 14.1146 1.20464 11.2064 3.3489 9.06213C5.49317 6.91786 8.40142 5.71322 11.4339 5.71322Z" fill="#5078FF"/>
<path d="M57.1471 24.0326C57.9074 24.5615 58.757 24.9486 59.655 25.1753C60.6619 25.4742 61.7061 25.6291 62.7564 25.6353C63.5549 25.6769 64.3528 25.5427 65.0937 25.2421C65.3227 25.1607 65.5222 25.0127 65.6663 24.817C65.8105 24.6212 65.8927 24.3868 65.9024 24.1439C65.9008 23.9434 65.842 23.7476 65.7329 23.5793C65.6238 23.4111 65.469 23.2775 65.2866 23.1942C64.6817 22.8971 64.0369 22.6897 63.3723 22.5784L62.0738 22.3187C60.6933 22.0917 59.3848 21.5454 58.2526 20.7234C57.7993 20.355 57.4394 19.8848 57.2021 19.351C56.9649 18.8173 56.8571 18.235 56.8874 17.6516C56.8804 16.7319 57.2073 15.8408 57.8074 15.1438C58.4837 14.3681 59.347 13.7781 60.3153 13.4298C61.4275 13.012 62.6072 12.8032 63.7952 12.8139C66.1695 12.8139 67.9503 13.2913 69.1374 14.246V17.4958C68.4418 17.0018 67.6588 16.6443 66.8299 16.4422C65.9039 16.1873 64.9485 16.055 63.9881 16.049C63.2276 16.0242 62.47 16.1556 61.7622 16.4348C61.176 16.6871 60.8792 17.0432 60.8792 17.4958C60.8774 17.68 60.9308 17.8605 61.0327 18.0139C61.1346 18.1674 61.2801 18.2867 61.4506 18.3565C62.0653 18.6178 62.7074 18.8095 63.3649 18.9278L64.6188 19.1727C66.0292 19.3847 67.365 19.943 68.5068 20.7976C68.9603 21.1642 69.3224 21.6312 69.5645 22.1617C69.8066 22.6922 69.922 23.2718 69.9017 23.8546C69.9183 24.8007 69.6295 25.727 69.0781 26.496C68.4835 27.294 67.6723 27.9043 66.7409 28.2545C65.6243 28.6843 64.4349 28.8934 63.2387 28.8703C61.9885 28.8909 60.7411 28.7462 59.5288 28.44C58.6777 28.2534 57.8728 27.8977 57.1619 27.3938V24.0326H57.1471ZM83.6802 17.1694V28.5884H80.1113V27.0228C79.6905 27.5648 79.1626 28.0143 78.5606 28.3435C77.8881 28.7038 77.1344 28.8852 76.3717 28.8703C75.2599 28.9236 74.1703 28.5463 73.3296 27.8167C72.9341 27.4347 72.6259 26.9717 72.4261 26.4594C72.2264 25.9471 72.1397 25.3977 72.1721 24.8488V17.1694H75.882V23.6765C75.882 25.0566 76.5869 25.7466 77.9967 25.7466C78.3628 25.749 78.7267 25.6888 79.0725 25.5685C79.3975 25.4644 79.6927 25.2838 79.9332 25.0417V17.1694H83.6802ZM93.6227 28.5884H89.7941L85.3422 17.1694H89.3266L91.7678 24.2552L94.2089 17.1694H98.0152L93.5633 28.5884H93.6227ZM105.034 28.8703C103.926 28.8862 102.831 28.6315 101.844 28.1283C100.898 27.6406 100.101 26.9077 99.5363 26.0063C98.9589 25.0681 98.6627 23.984 98.683 22.8826C98.6636 21.7883 98.9599 20.7115 99.5363 19.7811C100.1 18.8783 100.897 18.145 101.844 17.6591C102.831 17.1562 103.926 16.9015 105.034 16.9171C105.764 16.9083 106.492 17.0058 107.193 17.2065C107.733 17.3505 108.238 17.603 108.677 17.9484V22.0367H106.259V19.885C106.061 19.8748 105.863 19.8748 105.665 19.885C104.817 19.8574 103.99 20.1456 103.343 20.6937C103.047 20.9764 102.811 21.3161 102.65 21.6923C102.49 22.0685 102.407 22.4734 102.407 22.8826C102.407 23.2917 102.49 23.6967 102.65 24.0729C102.811 24.4491 103.047 24.7888 103.343 25.0714C103.989 25.6216 104.816 25.9125 105.665 25.8876C106.745 25.8871 107.798 25.5499 108.677 24.923V27.8464C108.219 28.1882 107.701 28.4399 107.149 28.5884C106.451 28.7834 105.729 28.8783 105.005 28.8703H105.034ZM111.549 28.5884V12.5914H115.259V18.5272C115.695 18.0497 116.216 17.6573 116.795 17.3697C117.433 17.0619 118.134 16.9069 118.842 16.9171C119.958 16.8662 121.049 17.2461 121.892 17.9781C122.285 18.3617 122.591 18.8251 122.789 19.3371C122.988 19.8492 123.074 20.3978 123.042 20.946V28.6255H119.332V22.0887C119.353 21.8074 119.317 21.5248 119.225 21.2581C119.133 20.9915 118.988 20.7464 118.798 20.5379C118.36 20.1689 117.797 19.9829 117.225 20.0185C116.869 20.0039 116.513 20.0621 116.18 20.1897C115.847 20.3173 115.544 20.5115 115.288 20.7605V28.6626L111.549 28.5884ZM130.373 28.5884H126.663V17.1694H130.373V28.5884ZM128.399 11.8939C128.946 11.881 129.477 12.0775 129.883 12.443C130.073 12.6154 130.224 12.8256 130.328 13.0601C130.432 13.2946 130.485 13.5481 130.485 13.8045C130.485 14.0609 130.432 14.3144 130.328 14.5489C130.224 14.7833 130.073 14.9935 129.883 15.166C129.477 15.5315 128.946 15.7279 128.399 15.7151C127.852 15.7326 127.319 15.5355 126.915 15.166C126.723 14.9948 126.57 14.785 126.465 14.5504C126.36 14.3157 126.306 14.0616 126.306 13.8045C126.306 13.5474 126.36 13.2932 126.465 13.0586C126.57 12.824 126.723 12.6142 126.915 12.443C127.319 12.0734 127.852 11.8764 128.399 11.8939ZM137.785 28.5884H134.075V12.5914H137.785V28.5884ZM152.625 28.388C152.396 28.5337 152.146 28.6414 151.883 28.7071C151.48 28.8213 151.062 28.8763 150.644 28.8703C150.035 28.8807 149.432 28.7459 148.885 28.4771C148.406 28.2471 148.028 27.8481 147.824 27.3567C147.4 27.8738 146.856 28.2793 146.239 28.538C145.622 28.7966 144.951 28.9005 144.285 28.8407C143.542 28.85 142.807 28.6928 142.133 28.3806C141.515 28.0984 140.986 27.6518 140.605 27.0896C140.231 26.5523 140.033 25.9116 140.041 25.2569C140.014 24.7041 140.142 24.1548 140.411 23.671C140.68 23.1872 141.078 22.7882 141.562 22.519C142.706 21.8765 144.005 21.5608 145.316 21.6064C146.111 21.6006 146.904 21.6953 147.676 21.8883V21.406C147.683 21.1383 147.619 20.8735 147.488 20.6397C147.357 20.4058 147.166 20.2117 146.934 20.0779C146.333 19.7483 145.652 19.5916 144.968 19.6253C144.265 19.6259 143.567 19.7335 142.897 19.9444C142.223 20.1516 141.59 20.4756 141.028 20.9015V17.9336C141.675 17.5684 142.372 17.3008 143.098 17.1397C143.947 16.9303 144.82 16.8256 145.695 16.828C147.175 16.7416 148.64 17.1688 149.842 18.0375C150.331 18.4381 150.719 18.9471 150.977 19.5241C151.235 20.1012 151.354 20.7303 151.326 21.3615V25.4572C151.317 25.5584 151.333 25.6603 151.373 25.7536C151.413 25.8469 151.476 25.9287 151.556 25.9915C151.727 26.1057 151.93 26.1628 152.135 26.1547C152.312 26.1636 152.488 26.1279 152.647 26.0508V28.3361L152.625 28.388ZM143.728 25.0788C143.725 25.2545 143.766 25.4282 143.849 25.5829C143.933 25.7377 144.055 25.8682 144.203 25.9618C144.573 26.1944 145.006 26.3083 145.442 26.2883C145.854 26.2932 146.262 26.2096 146.638 26.0432C147.014 25.8768 147.351 25.6314 147.624 25.3237V24.0475C147.038 23.8801 146.43 23.7977 145.821 23.8026C145.31 23.7903 144.803 23.8916 144.337 24.0994C144.147 24.1807 143.986 24.318 143.876 24.493C143.766 24.6679 143.712 24.8723 143.721 25.0788H143.728ZM155.125 19.5808H152.81V17.1619H158.694V19.143C158.953 18.5148 159.398 17.9813 159.97 17.6145C160.62 17.2052 161.377 17.001 162.144 17.0284C162.475 17.0142 162.806 17.0672 163.116 17.1842V20.4415C162.649 20.3198 162.167 20.2599 161.684 20.2634C160.663 20.1907 159.653 20.521 158.872 21.1835V28.5587H155.162V19.5882L155.125 19.5808ZM171.07 28.581V19.5882H168.718V17.1694H174.654V18.7127C175.051 18.1757 175.557 17.7283 176.138 17.3994C176.784 17.0481 177.51 16.8692 178.245 16.88C178.969 16.8618 179.685 17.0332 180.323 17.3771C180.881 17.683 181.343 18.1376 181.658 18.6904C182.096 18.1173 182.665 17.6572 183.316 17.3487C183.968 17.0402 184.685 16.8922 185.405 16.9171C186.522 16.8674 187.616 17.247 188.462 17.9781C188.859 18.3502 189.169 18.805 189.37 19.3102C189.571 19.8154 189.659 20.3586 189.627 20.9015V28.6255H185.917V21.8661C185.934 21.6176 185.898 21.3685 185.812 21.1347C185.726 20.9009 185.593 20.6875 185.42 20.5082C185.24 20.3395 185.027 20.2091 184.795 20.125C184.563 20.0408 184.316 20.0046 184.07 20.0185C183.732 20.0013 183.394 20.0529 183.076 20.1703C182.758 20.2876 182.468 20.4682 182.222 20.7012V28.6255H178.512V21.8661C178.527 21.6189 178.492 21.3713 178.41 21.138C178.327 20.9047 178.198 20.6905 178.03 20.5082C177.851 20.3397 177.64 20.2094 177.409 20.1252C177.178 20.041 176.932 20.0047 176.687 20.0185C176.009 19.9886 175.345 20.2257 174.84 20.6789V28.6255L171.07 28.581ZM204.348 28.3806C204.12 28.5272 203.869 28.635 203.606 28.6997C203.203 28.8139 202.786 28.8689 202.367 28.8629C201.756 28.8725 201.151 28.7378 200.601 28.4697C200.123 28.2393 199.748 27.8402 199.547 27.3493C199.122 27.8654 198.578 28.2702 197.961 28.5288C197.345 28.7873 196.674 28.8918 196.008 28.8332C195.263 28.8426 194.525 28.6855 193.849 28.3732C193.233 28.0881 192.705 27.6421 192.321 27.0822C191.952 26.5425 191.758 25.9029 191.764 25.2495C191.733 24.7005 191.856 24.1537 192.118 23.6703C192.38 23.1868 192.771 22.7857 193.248 22.5116C194.395 21.8703 195.696 21.5547 197.01 21.599C197.803 21.5931 198.593 21.6879 199.362 21.8809V21.3986C199.37 21.1309 199.305 20.8661 199.174 20.6322C199.043 20.3984 198.852 20.2043 198.62 20.0705C198.019 19.7409 197.338 19.5842 196.654 19.6179C195.951 19.6185 195.253 19.7261 194.584 19.9369C193.909 20.1442 193.276 20.4681 192.714 20.8941V17.9262C193.361 17.561 194.059 17.2934 194.784 17.1323C195.631 16.9229 196.501 16.8182 197.373 16.8206C198.854 16.7317 200.32 17.1591 201.521 18.03C202.011 18.4295 202.401 18.9384 202.658 19.5157C202.916 20.0929 203.035 20.7226 203.005 21.3541V25.4498C202.997 25.5516 203.015 25.6537 203.056 25.7469C203.098 25.8402 203.162 25.9216 203.242 25.984C203.412 26.1007 203.616 26.1581 203.821 26.1473C203.995 26.1562 204.169 26.1205 204.326 26.0434V28.3287L204.348 28.3806ZM195.489 25.0788C195.485 25.2536 195.527 25.4262 195.608 25.5807C195.69 25.7351 195.81 25.8663 195.956 25.9618C196.33 26.1911 196.764 26.3047 197.203 26.2883C197.613 26.2926 198.02 26.2087 198.395 26.0423C198.77 25.8759 199.105 25.6308 199.377 25.3237V24.0475C198.791 23.8801 198.183 23.7977 197.574 23.8026C197.063 23.7893 196.556 23.8907 196.09 24.0994C195.899 24.1798 195.738 24.3169 195.628 24.4921C195.517 24.6673 195.464 24.8721 195.474 25.0788H195.489ZM206.24 12.5839H209.95V21.1909H211.515L214.127 17.1619H218.067L214.595 22.5042L218.357 28.581H214.194L211.471 24.0475H209.95V28.581H206.24V12.5914V12.5839ZM224.589 24.3369C224.569 24.556 224.598 24.7768 224.673 24.9834C224.749 25.19 224.87 25.3772 225.027 25.5314C225.367 25.8088 225.798 25.9491 226.236 25.9247C226.652 25.9508 227.067 25.8743 227.446 25.7021V28.4548C227.148 28.6016 226.831 28.7041 226.503 28.759C226.106 28.8449 225.701 28.8896 225.294 28.8926C224.11 28.9646 222.942 28.5884 222.022 27.839C221.616 27.4408 221.301 26.9593 221.098 26.4278C220.896 25.8963 220.811 25.3272 220.85 24.7598V19.9592H219.002V17.1694H220.85V14.246H224.559V17.1694H227.416V19.9592H224.559V24.3369H224.589ZM241.655 28.4103C241.426 28.5555 241.175 28.6632 240.913 28.7294C240.507 28.8441 240.087 28.8991 239.666 28.8926C239.057 28.903 238.454 28.7682 237.908 28.4993C237.43 28.269 237.055 27.8699 236.854 27.379C236.429 27.8951 235.884 28.2999 235.268 28.5584C234.651 28.817 233.981 28.9215 233.315 28.8629C232.57 28.8723 231.832 28.7152 231.156 28.4029C230.539 28.1178 230.011 27.6718 229.627 27.1118C229.259 26.5721 229.065 25.9326 229.071 25.2792C229.04 24.7301 229.163 24.1834 229.425 23.6999C229.687 23.2165 230.078 22.8154 230.555 22.5413C231.701 21.8981 233.003 21.5825 234.316 21.6286C235.109 21.6228 235.9 21.7176 236.669 21.9106V21.4283C236.676 21.1606 236.611 20.8957 236.481 20.6619C236.35 20.4281 236.159 20.234 235.927 20.1002C235.326 19.7705 234.645 19.6139 233.96 19.6476C233.258 19.6482 232.56 19.7558 231.89 19.9666C231.216 20.1739 230.583 20.4978 230.02 20.9238V17.9558C230.668 17.5906 231.365 17.3231 232.091 17.1619C232.938 16.9526 233.807 16.8479 234.68 16.8503C236.161 16.7614 237.627 17.1888 238.828 18.0597C239.318 18.4592 239.707 18.968 239.965 19.5453C240.223 20.1226 240.341 20.7523 240.312 21.3838V25.4795C240.304 25.5813 240.321 25.6833 240.363 25.7766C240.404 25.8698 240.468 25.9513 240.549 26.0137C240.719 26.1304 240.922 26.1878 241.128 26.177C241.302 26.1859 241.476 26.1501 241.632 26.0731V28.3584L241.655 28.4103ZM232.766 25.0788C232.764 25.2541 232.807 25.427 232.89 25.5814C232.973 25.7358 233.093 25.8666 233.241 25.9618C233.615 26.1911 234.048 26.3047 234.487 26.2883C234.897 26.2926 235.304 26.2087 235.679 26.0423C236.054 25.8759 236.389 25.6308 236.661 25.3237V24.0475C236.075 23.8801 235.468 23.7977 234.858 23.8026C234.348 23.7913 233.841 23.8926 233.374 24.0994C233.184 24.1807 233.023 24.318 232.913 24.493C232.803 24.6679 232.749 24.8723 232.758 25.0788H232.766ZM243.524 12.5839H247.234V18.4604C247.595 17.99 248.053 17.6029 248.577 17.3252C249.175 17.016 249.841 16.8605 250.514 16.8726C251.44 16.8666 252.348 17.1239 253.133 17.6145C253.926 18.1263 254.565 18.8445 254.98 19.6921C255.43 20.6943 255.663 21.7804 255.663 22.8789C255.663 23.9774 255.43 25.0634 254.98 26.0657C254.569 26.9178 253.929 27.6395 253.133 28.1506C252.349 28.6443 251.44 28.9019 250.514 28.8926C249.826 28.9132 249.145 28.7535 248.539 28.4294C247.932 28.1053 247.421 27.628 247.056 27.0451V28.6107H243.495L243.524 12.5839ZM247.234 25.0566C247.845 25.6031 248.641 25.8952 249.46 25.8728C249.8 25.8815 250.137 25.8125 250.445 25.6711C250.754 25.5296 251.026 25.3194 251.241 25.0566C251.672 24.408 251.902 23.6465 251.902 22.8677C251.902 22.089 251.672 21.3275 251.241 20.6789C251.025 20.4174 250.753 20.2086 250.444 20.0685C250.136 19.9283 249.799 19.8605 249.46 19.8701C248.642 19.8449 247.845 20.1344 247.234 20.6789V25.0566ZM262.571 28.5884H258.861V17.1694H262.571V28.5884ZM260.59 11.8865C261.137 11.8764 261.668 12.0754 262.074 12.443C262.264 12.6154 262.415 12.8256 262.519 13.0601C262.623 13.2946 262.676 13.5481 262.676 13.8045C262.676 14.0609 262.623 14.3144 262.519 14.5489C262.415 14.7833 262.264 14.9935 262.074 15.166C261.667 15.5315 261.136 15.7279 260.59 15.7151C260.043 15.7326 259.51 15.5355 259.106 15.166C258.914 14.9948 258.761 14.785 258.656 14.5504C258.551 14.3157 258.496 14.0616 258.496 13.8045C258.496 13.5474 258.551 13.2932 258.656 13.0586C258.761 12.824 258.914 12.6142 259.106 12.443C259.506 12.075 260.032 11.8757 260.575 11.8865H260.59Z" fill="black"/>
</g>
<defs>
<clipPath id="clip0_1_3">
<rect width="262.682" height="40" fill="white"/>
</clipPath>
</defs>
</svg>
