<svg width="330" height="280" viewBox="0 0 330 280" fill="none" xmlns="http://www.w3.org/2000/svg">
<path fill-rule="evenodd" clip-rule="evenodd" d="M82.5402 40.2273C98.7749 40.2224 114.651 44.8873 128.181 53.6383C141.711 62.3893 152.296 74.8378 158.609 89.4262C164.922 104.015 166.685 120.095 163.676 135.656C160.667 151.216 153.02 165.566 141.692 176.909C130.364 188.252 115.858 196.085 99.9894 199.427C84.1205 202.77 67.5933 201.474 52.4758 195.701C37.3583 189.929 24.3217 179.936 14.9974 166.973C5.67305 154.01 0.474983 138.654 0.0535742 122.824C0.947449 154.437 14.5229 184.446 37.8616 206.4C61.2003 228.354 92.4387 240.499 124.861 240.225C157.284 239.952 188.302 227.281 211.248 204.936C234.193 182.592 247.234 152.358 247.567 120.734H0C0 121.413 0 122.093 0 122.772C1.00403 164.98 18.9701 205.114 50.0263 234.523C81.0825 263.933 122.742 280.264 166.027 279.997C209.312 279.73 250.756 262.885 281.428 233.094C312.1 203.304 329.544 162.951 330 120.734H247.567C247.567 88.7136 234.525 58.0044 211.312 35.3623C188.098 12.7202 156.613 0 123.783 0C90.9541 0 59.4693 12.7202 36.2553 35.3623C13.0414 58.0044 4.89196e-07 88.7136 0 120.734C0 99.3826 8.69618 78.9053 24.1755 63.8073C39.6547 48.7093 60.6491 40.2273 82.5402 40.2273Z" fill="#FDFDFD" fill-opacity="0.26"/>
</svg>
