<svg width="35" height="30" viewBox="0 0 35 30" fill="none" xmlns="http://www.w3.org/2000/svg">
<path fill-rule="evenodd" clip-rule="evenodd" d="M8.5754 4.28492C10.2621 4.28439 11.9115 4.78128 13.3172 5.71342C14.7229 6.64555 15.8225 7.97154 16.4785 9.52546C17.1344 11.0794 17.3175 12.7922 17.0049 14.4497C16.6923 16.1072 15.8978 17.6356 14.7209 18.8439C13.544 20.0521 12.037 20.8864 10.3883 21.2425C8.73959 21.5985 7.02252 21.4605 5.45191 20.8456C3.88129 20.2307 2.52688 19.1663 1.55814 17.7856C0.589395 16.4048 0.0493478 14.769 0.00556602 13.0829C0.0984339 16.4503 1.50884 19.6468 3.93358 21.9852C6.35833 24.3237 9.6038 25.6174 12.9723 25.5882C16.3408 25.5591 19.5634 24.2094 21.9473 21.8293C24.3312 19.4492 25.6861 16.2288 25.7206 12.8603H0C0 12.9327 0 13.005 0 13.0774C0.104313 17.5733 1.97088 21.8482 5.19742 24.9808C8.42396 28.1135 12.7521 29.853 17.2492 29.8246C21.7462 29.7961 26.052 28.0019 29.2386 24.8286C32.4252 21.6554 34.2375 17.3572 34.2849 12.8603H25.7206C25.7206 9.44955 24.3657 6.17848 21.9539 3.7667C19.5422 1.35493 16.2711 0 12.8603 0C9.44956 0 6.17848 1.35493 3.7667 3.7667C1.35492 6.17848 5.08244e-08 9.44955 0 12.8603C0 10.586 0.903478 8.4048 2.51168 6.7966C4.11988 5.1884 6.30106 4.28492 8.5754 4.28492Z" fill="white"/>
</svg>
