<svg viewBox="0 0 168 24" fill="none" xmlns="http://www.w3.org/2000/svg">
<g clip-path="url(#clip0_168_1597)">
<path fill-rule="evenodd" clip-rule="evenodd" d="M6.86032 3.42793C8.20967 3.42751 9.52919 3.82503 10.6538 4.57074C11.7783 5.31644 12.658 6.37723 13.1828 7.62037C13.7075 8.86351 13.854 10.2338 13.6039 11.5598C13.3538 12.8857 12.7183 14.1085 11.7767 15.0751C10.8352 16.0417 9.62957 16.7092 8.31062 16.994C6.99167 17.2788 5.61802 17.1684 4.36152 16.6765C3.10503 16.1846 2.0215 15.333 1.24651 14.2284C0.471516 13.1238 0.0394782 11.8152 0.00445282 10.4663C0.0787472 13.1602 1.20707 15.7174 3.14687 17.5882C5.08666 19.4589 7.68304 20.4939 10.3779 20.4706C13.0727 20.4473 15.6507 19.3675 17.5579 17.4634C19.465 15.5594 20.5489 12.983 20.5765 10.2883H0C0 10.3461 0 10.404 0 10.4619C0.0834502 14.0586 1.5767 17.4786 4.15793 19.9847C6.73917 22.4908 10.2017 23.8824 13.7993 23.8597C17.3969 23.8369 20.8416 22.4015 23.3909 19.8629C25.9402 17.3243 27.39 13.8858 27.4279 10.2883H20.5765C20.5765 7.55964 19.4926 4.94279 17.5632 3.01336C15.6337 1.08394 13.0169 0 10.2883 0C7.55964 0 4.94278 1.08394 3.01336 3.01336C1.08394 4.94279 4.06595e-08 7.55964 0 10.2883C0 8.46879 0.722782 6.72384 2.00934 5.43728C3.2959 4.15072 5.04085 3.42793 6.86032 3.42793Z" fill="white"/>
<path d="M34.2882 14.4195C34.7444 14.7369 35.2542 14.9691 35.7929 15.1051C36.3971 15.2845 37.0236 15.3774 37.6538 15.3811C38.1329 15.4061 38.6116 15.3256 39.0562 15.1452C39.1936 15.0964 39.3133 15.0076 39.3998 14.8901C39.4863 14.7727 39.5356 14.632 39.5414 14.4863C39.5404 14.366 39.5051 14.2485 39.4397 14.1476C39.3742 14.0466 39.2813 13.9665 39.1719 13.9165C38.809 13.7382 38.4221 13.6138 38.0233 13.547L37.2443 13.3912C36.4159 13.255 35.6308 12.9272 34.9515 12.434C34.6795 12.213 34.4636 11.9309 34.3212 11.6106C34.1789 11.2903 34.1142 10.9409 34.1324 10.5909C34.1282 10.0391 34.3243 9.50442 34.6844 9.08621C35.0902 8.62082 35.6082 8.26683 36.1892 8.05783C36.8564 7.80713 37.5643 7.68186 38.2771 7.68833C39.7017 7.68833 40.7701 7.97473 41.4824 8.54753V10.4975C41.0651 10.2011 40.5952 9.98654 40.0979 9.86529C39.5423 9.71231 38.9691 9.63299 38.3928 9.62934C37.9365 9.6145 37.482 9.69329 37.0573 9.86084C36.7056 10.0122 36.5275 10.2259 36.5275 10.4975C36.5264 10.608 36.5585 10.7162 36.6196 10.8083C36.6807 10.9004 36.768 10.972 36.8703 11.0139C37.2392 11.1706 37.6244 11.2856 38.0189 11.3567L38.7712 11.5036C39.6175 11.6308 40.4189 11.9658 41.104 12.4785C41.3761 12.6985 41.5934 12.9787 41.7387 13.297C41.8839 13.6153 41.9532 13.963 41.941 14.3127C41.951 14.8804 41.7777 15.4362 41.4468 15.8976C41.0901 16.3763 40.6033 16.7426 40.0445 16.9527C39.3745 17.2105 38.6609 17.336 37.9432 17.3222C37.1931 17.3345 36.4446 17.2477 35.7173 17.064C35.2066 16.952 34.7236 16.7385 34.2971 16.4362V14.4195H34.2882ZM50.2081 10.3016V17.153H48.0667V16.2136C47.8142 16.5388 47.4975 16.8086 47.1363 17.0061C46.7328 17.2222 46.2806 17.3311 45.823 17.3222C45.1559 17.3541 44.5022 17.1277 43.9977 16.69C43.7604 16.4608 43.5755 16.183 43.4556 15.8756C43.3358 15.5682 43.2838 15.2386 43.3032 14.9093V10.3016H45.5292V14.2058C45.5292 15.0339 45.9521 15.4479 46.798 15.4479C47.0176 15.4494 47.236 15.4132 47.4435 15.3411C47.6385 15.2786 47.8156 15.1702 47.9599 15.025V10.3016H50.2081ZM56.1736 17.153H53.8764L51.2053 10.3016H53.5959L55.0606 14.5531L56.5253 10.3016H58.8091L56.138 17.153H56.1736ZM63.0205 17.3222C62.3557 17.3317 61.6986 17.1789 61.1062 16.877C60.539 16.5843 60.0608 16.1446 59.7217 15.6037C59.3753 15.0408 59.1976 14.3904 59.2097 13.7295C59.1982 13.0729 59.3759 12.4269 59.7217 11.8686C60.0598 11.327 60.5382 10.887 61.1062 10.5954C61.6987 10.2937 62.3557 10.1409 63.0205 10.1502C63.4585 10.1449 63.8949 10.2034 64.316 10.3238C64.64 10.4103 64.9429 10.5617 65.2064 10.769V13.222H63.7551V11.931C63.6365 11.9248 63.5176 11.9248 63.399 11.931C62.8904 11.9144 62.3938 12.0873 62.0055 12.4162C61.828 12.5858 61.6867 12.7896 61.5902 13.0153C61.4937 13.2411 61.4439 13.484 61.4439 13.7295C61.4439 13.975 61.4937 14.2179 61.5902 14.4437C61.6867 14.6694 61.828 14.8732 62.0055 15.0428C62.3933 15.3729 62.8899 15.5474 63.399 15.5325C64.047 15.5322 64.6787 15.3299 65.2064 14.9538V16.7078C64.9316 16.9129 64.6204 17.0639 64.2893 17.153C63.8706 17.27 63.4374 17.3269 63.0027 17.3222H63.0205ZM66.9293 17.153V7.55477H69.1552V11.1163C69.4168 10.8298 69.7293 10.5943 70.0767 10.4218C70.4597 10.2371 70.8804 10.1441 71.3055 10.1502C71.9745 10.1197 72.6296 10.3476 73.1352 10.7868C73.3709 11.017 73.5546 11.295 73.6736 11.6022C73.7927 11.9095 73.8444 12.2386 73.8252 12.5676V17.1752H71.5993V13.2532C71.6121 13.0844 71.5902 12.9148 71.5351 12.7548C71.48 12.5948 71.3927 12.4478 71.2787 12.3227C71.016 12.1013 70.6779 11.9897 70.335 12.0111C70.1212 12.0023 69.9078 12.0372 69.708 12.1138C69.5083 12.1903 69.3262 12.3069 69.173 12.4563V17.1975L66.9293 17.153ZM78.2237 17.153H75.9977V10.3016H78.2237V17.153ZM77.0395 7.13629C77.3674 7.12859 77.6859 7.24643 77.9298 7.46573C78.0437 7.56921 78.1346 7.69533 78.1968 7.83601C78.2591 7.97669 78.2912 8.12882 78.2912 8.28265C78.2912 8.43647 78.2591 8.58861 78.1968 8.72929C78.1346 8.86996 78.0437 8.99609 77.9298 9.09957C77.6859 9.31887 77.3674 9.43671 77.0395 9.42901C76.7111 9.43949 76.3916 9.32128 76.1491 9.09957C76.034 8.99684 75.942 8.87096 75.8789 8.73018C75.8159 8.5894 75.7833 8.43689 75.7833 8.28265C75.7833 8.1284 75.8159 7.97589 75.8789 7.83512C75.942 7.69434 76.034 7.56846 76.1491 7.46573C76.3916 7.24402 76.7111 7.1258 77.0395 7.13629ZM82.6711 17.153H80.4451V7.55477H82.6711V17.153ZM91.5748 17.0328C91.4377 17.1202 91.2874 17.1848 91.1296 17.2242C90.8879 17.2928 90.6374 17.3257 90.3861 17.3222C90.0207 17.3284 89.659 17.2475 89.3311 17.0862C89.0433 16.9482 88.8166 16.7088 88.6944 16.414C88.4399 16.7242 88.1133 16.9676 87.7432 17.1227C87.3731 17.2779 86.9706 17.3403 86.5709 17.3044C86.1253 17.3099 85.6842 17.2156 85.2799 17.0283C84.909 16.859 84.5918 16.591 84.3628 16.2537C84.1383 15.9313 84.02 15.5469 84.0244 15.1541C84.0083 14.8224 84.0852 14.4928 84.2464 14.2025C84.4077 13.9123 84.6469 13.6728 84.9371 13.5114C85.6236 13.1259 86.4028 12.9364 87.1897 12.9638C87.6669 12.9603 88.1425 13.0171 88.6054 13.133V12.8436C88.61 12.6829 88.5711 12.5241 88.4927 12.3838C88.4143 12.2435 88.2994 12.127 88.1602 12.0467C87.7996 11.8489 87.3913 11.7549 86.9805 11.7751C86.5591 11.7755 86.1403 11.8401 85.7384 11.9666C85.3337 12.0909 84.954 12.2853 84.6165 12.5409V10.7601C85.0048 10.541 85.4234 10.3805 85.8586 10.2838C86.3684 10.1581 86.8917 10.0953 87.4168 10.0968C88.3051 10.0449 89.1841 10.3012 89.9054 10.8224C90.1985 11.0628 90.4316 11.3682 90.5862 11.7144C90.7408 12.0606 90.8125 12.4381 90.7957 12.8169V15.2743C90.7901 15.335 90.7998 15.3961 90.8239 15.4521C90.848 15.5081 90.8858 15.5572 90.9337 15.5948C91.0362 15.6634 91.1578 15.6977 91.281 15.6928C91.387 15.6981 91.4926 15.6767 91.5882 15.6305V17.0016L91.5748 17.0328ZM86.237 15.0473C86.2347 15.1527 86.2597 15.2569 86.3096 15.3497C86.3596 15.4426 86.4327 15.5209 86.5219 15.577C86.744 15.7166 87.0034 15.7849 87.2654 15.7729C87.5123 15.7759 87.7569 15.7257 87.9827 15.6259C88.2086 15.526 88.4103 15.3788 88.5742 15.1942V14.4284C88.2225 14.328 87.8582 14.2786 87.4924 14.2815C87.1861 14.2741 86.882 14.3349 86.6021 14.4596C86.488 14.5084 86.3916 14.5907 86.3256 14.6957C86.2595 14.8007 86.2271 14.9234 86.2326 15.0473H86.237ZM93.0751 11.7484H91.6861V10.2971H95.2164V11.4858C95.3717 11.1089 95.639 10.7887 95.9821 10.5687C96.3718 10.3231 96.8263 10.2005 97.2865 10.217C97.4853 10.2085 97.6836 10.2403 97.8697 10.3105V12.2648C97.5892 12.1918 97.3004 12.1559 97.0105 12.158C96.3976 12.1144 95.7919 12.3125 95.3233 12.71V17.1352H93.0973V11.7529L93.0751 11.7484ZM102.642 17.1485V11.7529H101.231V10.3016H104.792V11.2276C105.031 10.9054 105.334 10.6369 105.683 10.4396C106.07 10.2288 106.506 10.1215 106.947 10.1279C107.381 10.117 107.811 10.2199 108.194 10.4262C108.528 10.6098 108.806 10.8825 108.995 11.2142C109.258 10.8703 109.599 10.5943 109.99 10.4092C110.381 10.2241 110.811 10.1353 111.243 10.1502C111.913 10.1204 112.57 10.3481 113.077 10.7868C113.315 11.0101 113.501 11.2829 113.622 11.5861C113.743 11.8892 113.795 12.2151 113.776 12.5409V17.1752H111.55V13.1196C111.56 12.9705 111.539 12.821 111.487 12.6808C111.436 12.5405 111.356 12.4125 111.252 12.3049C111.144 12.2037 111.016 12.1254 110.877 12.0749C110.738 12.0244 110.59 12.0027 110.442 12.0111C110.239 12.0007 110.036 12.0317 109.846 12.1021C109.655 12.1725 109.481 12.2809 109.333 12.4207V17.1752H107.107V13.1196C107.116 12.9713 107.095 12.8227 107.046 12.6828C106.996 12.5428 106.919 12.4142 106.818 12.3049C106.711 12.2038 106.584 12.1256 106.445 12.0751C106.307 12.0246 106.159 12.0028 106.012 12.0111C105.605 11.9931 105.207 12.1354 104.904 12.4073V17.1752L102.642 17.1485ZM122.609 17.0283C122.472 17.1163 122.322 17.181 122.164 17.2198C121.922 17.2883 121.671 17.3213 121.42 17.3177C121.053 17.3235 120.69 17.2426 120.361 17.0818C120.074 16.9436 119.849 16.7041 119.728 16.4095C119.473 16.7192 119.147 16.9621 118.777 17.1172C118.407 17.2723 118.005 17.335 117.605 17.2999C117.158 17.3055 116.715 17.2112 116.309 17.0239C115.94 16.8528 115.623 16.5852 115.392 16.2493C115.171 15.9254 115.055 15.5417 115.058 15.1497C115.04 14.8202 115.114 14.4922 115.271 14.2021C115.428 13.9121 115.663 13.6714 115.949 13.5069C116.637 13.1221 117.418 12.9328 118.206 12.9593C118.682 12.9558 119.156 13.0127 119.617 13.1285V12.8391C119.622 12.6785 119.583 12.5196 119.504 12.3793C119.426 12.239 119.311 12.1225 119.172 12.0422C118.811 11.8445 118.403 11.7505 117.992 11.7707C117.571 11.7711 117.152 11.8356 116.75 11.9621C116.345 12.0865 115.966 12.2808 115.628 12.5364V10.7557C116.017 10.5365 116.435 10.376 116.87 10.2793C117.379 10.1537 117.9 10.0909 118.424 10.0923C119.312 10.039 120.192 10.2954 120.913 10.818C121.207 11.0577 121.44 11.363 121.595 11.7094C121.75 12.0557 121.821 12.4335 121.803 12.8124V15.2699C121.798 15.3309 121.809 15.3921 121.834 15.4481C121.859 15.504 121.897 15.5529 121.945 15.5904C122.047 15.6604 122.169 15.6948 122.293 15.6883C122.397 15.6937 122.501 15.6722 122.595 15.626V16.9972L122.609 17.0283ZM117.293 15.0473C117.291 15.1521 117.316 15.2557 117.365 15.3484C117.414 15.441 117.486 15.5197 117.574 15.577C117.798 15.7146 118.058 15.7828 118.322 15.7729C118.568 15.7755 118.812 15.7252 119.037 15.6253C119.262 15.5255 119.463 15.3784 119.626 15.1942V14.4284C119.274 14.328 118.91 14.2786 118.544 14.2815C118.238 14.2735 117.934 14.3344 117.654 14.4596C117.539 14.5078 117.443 14.5901 117.376 14.6952C117.31 14.8003 117.278 14.9232 117.284 15.0473H117.293ZM123.744 7.55032H125.97V12.7145H126.909L128.476 10.2971H130.84L128.757 13.5025L131.014 17.1485H128.516L126.883 14.4284H125.97V17.1485H123.744V7.55477V7.55032ZM134.753 14.6021C134.741 14.7335 134.759 14.8661 134.804 14.99C134.849 15.114 134.922 15.2263 135.016 15.3188C135.22 15.4852 135.479 15.5694 135.742 15.5548C135.991 15.5704 136.24 15.5246 136.467 15.4212V17.0729C136.289 17.1609 136.098 17.2224 135.902 17.2554C135.664 17.3069 135.42 17.3337 135.176 17.3355C134.466 17.3787 133.765 17.153 133.213 16.7034C132.969 16.4644 132.78 16.1756 132.659 15.8566C132.538 15.5377 132.487 15.1963 132.51 14.8558V11.9755H131.401V10.3016H132.51V8.54753H134.736V10.3016H136.45V11.9755H134.736V14.6021H134.753ZM144.993 17.0461C144.855 17.1332 144.705 17.1979 144.548 17.2376C144.304 17.3064 144.052 17.3394 143.8 17.3355C143.434 17.3418 143.073 17.2609 142.745 17.0996C142.458 16.9614 142.233 16.7219 142.112 16.4273C141.857 16.737 141.531 16.9799 141.161 17.135C140.791 17.2901 140.388 17.3529 139.989 17.3177C139.542 17.3234 139.099 17.2291 138.693 17.0417C138.324 16.8706 138.007 16.603 137.776 16.2671C137.555 15.9432 137.439 15.5595 137.442 15.1675C137.424 14.838 137.498 14.51 137.655 14.2199C137.812 13.9299 138.047 13.6892 138.333 13.5247C139.021 13.1388 139.802 12.9494 140.59 12.9771C141.066 12.9737 141.54 13.0305 142.001 13.1463V12.8569C142.006 12.6963 141.967 12.5374 141.888 12.3971C141.81 12.2568 141.695 12.1403 141.556 12.0601C141.195 11.8623 140.787 11.7683 140.376 11.7885C139.955 11.7889 139.536 11.8534 139.134 11.9799C138.729 12.1043 138.35 12.2986 138.012 12.5542V10.7735C138.4 10.5543 138.819 10.3938 139.254 10.2971C139.763 10.1715 140.284 10.1087 140.808 10.1101C141.696 10.0568 142.576 10.3132 143.297 10.8358C143.591 11.0755 143.824 11.3808 143.979 11.7272C144.133 12.0735 144.205 12.4513 144.187 12.8302V15.2877C144.182 15.3487 144.193 15.41 144.218 15.4659C144.243 15.5219 144.281 15.5708 144.329 15.6082C144.431 15.6782 144.553 15.7126 144.677 15.7061C144.781 15.7115 144.885 15.69 144.979 15.6438V17.015L144.993 17.0461ZM139.659 15.0473C139.658 15.1524 139.684 15.2562 139.734 15.3488C139.784 15.4414 139.856 15.5199 139.944 15.577C140.169 15.7146 140.429 15.7828 140.692 15.7729C140.938 15.7755 141.182 15.7252 141.407 15.6253C141.632 15.5255 141.833 15.3784 141.997 15.1942V14.4284C141.645 14.328 141.281 14.2786 140.915 14.2815C140.609 14.2747 140.305 14.3355 140.024 14.4596C139.91 14.5084 139.814 14.5907 139.748 14.6957C139.682 14.8007 139.649 14.9234 139.655 15.0473H139.659ZM146.115 7.55032H148.341V11.0762C148.557 10.794 148.832 10.5617 149.146 10.3951C149.505 10.2096 149.904 10.1163 150.308 10.1235C150.864 10.1199 151.409 10.2743 151.88 10.5687C152.356 10.8757 152.739 11.3067 152.988 11.8152C153.258 12.4165 153.398 13.0682 153.398 13.7273C153.398 14.3864 153.258 15.038 152.988 15.6393C152.741 16.1507 152.358 16.5836 151.88 16.8903C151.41 17.1866 150.864 17.3411 150.308 17.3355C149.896 17.3479 149.487 17.2521 149.123 17.0576C148.759 16.8631 148.453 16.5768 148.234 16.227V17.1663H146.097L146.115 7.55032ZM148.341 15.0339C148.707 15.3618 149.185 15.5371 149.676 15.5236C149.88 15.5289 150.082 15.4875 150.267 15.4026C150.452 15.3177 150.616 15.1916 150.745 15.0339C151.003 14.6447 151.141 14.1879 151.141 13.7206C151.141 13.2533 151.003 12.7965 150.745 12.4073C150.615 12.2504 150.452 12.1251 150.266 12.041C150.081 11.9569 149.879 11.9162 149.676 11.922C149.185 11.9069 148.707 12.0806 148.341 12.4073V15.0339ZM157.543 17.153H155.317V10.3016H157.543V17.153ZM156.354 7.13184C156.682 7.1258 157.001 7.24521 157.244 7.46573C157.358 7.56921 157.449 7.69533 157.511 7.83601C157.573 7.97669 157.606 8.12882 157.606 8.28265C157.606 8.43647 157.573 8.58861 157.511 8.72929C157.449 8.86996 157.358 8.99609 157.244 9.09957C157 9.31887 156.682 9.43671 156.354 9.42901C156.025 9.43949 155.706 9.32128 155.463 9.09957C155.348 8.99684 155.256 8.87096 155.193 8.73018C155.13 8.5894 155.098 8.43689 155.098 8.28265C155.098 8.1284 155.13 7.97589 155.193 7.83512C155.256 7.69434 155.348 7.56846 155.463 7.46573C155.703 7.24498 156.019 7.12536 156.345 7.13184H156.354Z" fill="white"/>
</g>
<defs>
<clipPath id="clip0_168_1597">
<rect width="157.609" height="24" fill="white"/>
</clipPath>
</defs>
</svg>
