<svg width="24" height="24" viewBox="0 0 24 24" fill="none" xmlns="http://www.w3.org/2000/svg">
<path fill-rule="evenodd" clip-rule="evenodd" d="M11.75 4.5C11.4965 4.5 11.2417 4.6066 10.2966 5.07918L6.29656 7.07918C5.74487 7.35502 5.3822 7.53739 5.11612 7.7067C4.8647 7.86667 4.75562 7.98131 4.68669 8.09284C4.61776 8.20437 4.56401 8.3532 4.53336 8.64962C4.50093 8.96333 4.5 9.36926 4.5 9.98607V15.5139C4.5 16.4779 4.5016 17.1255 4.56654 17.6085C4.62858 18.07 4.7358 18.2675 4.86612 18.3978C4.99644 18.5281 5.19393 18.6354 5.65539 18.6974C6.13843 18.7623 6.78599 18.7639 7.75 18.7639H15.75C16.714 18.7639 17.3616 18.7623 17.8446 18.6974C18.3061 18.6354 18.5036 18.5281 18.6339 18.3978C18.7642 18.2675 18.8714 18.07 18.9335 17.6085C18.9984 17.1255 19 16.4779 19 15.5139V9.98607C19 9.36926 18.9991 8.96333 18.9666 8.64962C18.936 8.3532 18.8822 8.20437 18.8133 8.09284C18.7444 7.98131 18.6353 7.86667 18.3839 7.7067C18.1178 7.53739 17.7551 7.35502 17.2034 7.07918L13.2034 5.07918C12.2583 4.6066 12.0035 4.5 11.75 4.5ZM9.75633 3.67212C10.5042 3.29715 11.0968 3 11.75 3C12.4032 3 12.9958 3.29715 13.7437 3.67212C13.7867 3.69368 13.8302 3.7155 13.8743 3.73754L17.9073 5.75404C18.4171 6.00892 18.8499 6.22532 19.1891 6.44116C19.5503 6.67097 19.8595 6.93247 20.0893 7.30424C20.3191 7.67601 20.4147 8.06954 20.4587 8.49535C20.5 8.89528 20.5 9.37921 20.5 9.94918V15.5659C20.5 16.4644 20.5001 17.2136 20.4201 17.8084C20.3357 18.4362 20.15 19.003 19.6945 19.4585C19.2391 19.9139 18.6723 20.0996 18.0445 20.184C17.4497 20.264 16.7005 20.264 15.802 20.2639H7.69801C6.79953 20.264 6.05031 20.264 5.45552 20.184C4.82773 20.0996 4.26093 19.9139 3.80546 19.4585C3.34999 19.003 3.16432 18.4362 3.07991 17.8084C2.99995 17.2136 2.99997 16.4644 3 15.5659L3 9.94919C2.99998 9.37921 2.99997 8.89528 3.04132 8.49535C3.08534 8.06954 3.18094 7.67601 3.41071 7.30424C3.64048 6.93247 3.94971 6.67097 4.31088 6.44116C4.65009 6.22532 5.08294 6.00892 5.59275 5.75403C5.60371 5.74855 5.61471 5.74305 5.62574 5.73754L9.62574 3.73754C9.66981 3.7155 9.71333 3.69368 9.75633 3.67212Z" fill="white"/>
<path fill-rule="evenodd" clip-rule="evenodd" d="M7.57843 11.7639C7.24691 11.7639 6.92896 11.6322 6.69454 11.3978L4.28033 8.98359C3.98744 8.69069 3.51256 8.69069 3.21967 8.98359C2.92678 9.27648 2.92678 9.75135 3.21967 10.0442L5.63388 12.4585C6.14961 12.9742 6.84908 13.2639 7.57843 13.2639H15.9216C16.6509 13.2639 17.3504 12.9742 17.8661 12.4585L20.2803 10.0442C20.5732 9.75135 20.5732 9.27648 20.2803 8.98359C19.9874 8.69069 19.5126 8.69069 19.2197 8.98359L16.8055 11.3978C16.571 11.6322 16.2531 11.7639 15.9216 11.7639H7.57843Z" fill="white"/>
</svg>
