<svg width="60" height="60" viewBox="0 0 60 60" fill="none" xmlns="http://www.w3.org/2000/svg">
<rect width="60" height="60" rx="30" fill="white"/>
<path fill-rule="evenodd" clip-rule="evenodd" d="M30 17.6667C23.1884 17.6667 17.6666 23.1886 17.6666 30.0001C17.6666 36.8116 23.1884 42.3334 30 42.3334C36.8115 42.3334 42.3333 36.8116 42.3333 30.0001C42.3333 23.1886 36.8115 17.6667 30 17.6667ZM15.6666 30.0001C15.6666 22.084 22.0839 15.6667 30 15.6667C37.916 15.6667 44.3333 22.084 44.3333 30.0001C44.3333 37.9162 37.916 44.3334 30 44.3334C22.0839 44.3334 15.6666 37.9162 15.6666 30.0001Z" fill="#5078FF"/>
<path fill-rule="evenodd" clip-rule="evenodd" d="M23.6666 18.0001C23.6666 17.4478 24.1143 17.0001 24.6666 17.0001H26C26.3215 17.0001 26.6234 17.1547 26.8114 17.4156C26.9993 17.6765 27.0503 18.0118 26.9485 18.3168C24.4171 25.8979 24.4171 34.1023 26.9485 41.6834C27.0503 41.9883 26.9993 42.3237 26.8114 42.5846C26.6234 42.8455 26.3215 43.0001 26 43.0001H24.6666C24.1143 43.0001 23.6666 42.5524 23.6666 42.0001C23.6666 41.4575 24.0988 41.0158 24.6377 41.0005C22.5207 33.8216 22.5207 26.1786 24.6377 18.9997C24.0988 18.9844 23.6666 18.5427 23.6666 18.0001Z" fill="#5078FF"/>
<path fill-rule="evenodd" clip-rule="evenodd" d="M33.6832 17.0516C34.2071 16.8766 34.7736 17.1595 34.9485 17.6834C37.6171 25.6756 37.6171 34.3246 34.9485 42.3168C34.7736 42.8407 34.2071 43.1235 33.6832 42.9486C33.1594 42.7737 32.8765 42.2072 33.0514 41.6834C35.5828 34.1023 35.5828 25.8979 33.0514 18.3168C32.8765 17.7929 33.1594 17.2265 33.6832 17.0516Z" fill="#5078FF"/>
<path fill-rule="evenodd" clip-rule="evenodd" d="M17.4155 33.1887C17.6763 33.0008 18.0117 32.9497 18.3167 33.0516C25.8978 35.5829 34.1021 35.5829 41.6832 33.0516C41.9882 32.9497 42.3236 33.0008 42.5845 33.1887C42.8454 33.3766 43 33.6785 43 34.0001V35.3334C43 35.8857 42.5522 36.3334 42 36.3334C41.4573 36.3334 41.0157 35.9012 41.0004 35.3623C33.8214 37.4793 26.1785 37.4793 18.9995 35.3623C18.9843 35.9012 18.5426 36.3334 18 36.3334C17.4477 36.3334 17 35.8857 17 35.3334V34.0001C17 33.6785 17.1546 33.3766 17.4155 33.1887Z" fill="#5078FF"/>
<path fill-rule="evenodd" clip-rule="evenodd" d="M41.6832 26.9486C34.1021 24.4172 25.8978 24.4172 18.3167 26.9486C17.7928 27.1235 17.2264 26.8407 17.0514 26.3168C16.8765 25.7929 17.1594 25.2265 17.6832 25.0516C25.6755 22.3829 34.3244 22.3829 42.3167 25.0516C42.8405 25.2265 43.1234 25.7929 42.9485 26.3168C42.7736 26.8407 42.2071 27.1235 41.6832 26.9486Z" fill="#5078FF"/>
</svg>
