<svg width="61" height="60" viewBox="0 0 61 60" fill="none" xmlns="http://www.w3.org/2000/svg">
<path d="M56.8622 22.2478H52.9879V0H21.4L8.01191 13.3882V22.2478H4.1377V51.123H8.01203V60H52.9881V51.123H56.8625V22.2478H56.8622ZM20.832 5.54004V12.8126H13.5595L20.832 5.54004ZM11.5275 16.3281H24.3476V3.51562H49.4724V22.2478H11.5275V16.3281ZM49.4724 56.4844H11.5275V51.123H49.4724V56.4844ZM53.3466 47.6074H7.65332V25.7634H53.3467V47.6074H53.3466Z" fill="#5078FF"/>
<path d="M15.417 39.4143H17.4951C20.3369 39.4143 22.6489 37.1023 22.6489 34.2605C22.6489 31.4187 20.3369 29.1067 17.4951 29.1067H11.9014V44.4485H15.417V39.4143ZM15.417 32.6223H17.4951C18.3984 32.6223 19.1332 33.3572 19.1332 34.2605C19.1332 35.1638 18.3984 35.8986 17.4951 35.8986H15.417V32.6223ZM42.7769 39.4143H47.6191V35.8986H42.7769V32.6223H48.8691V29.1067H39.2613V44.4485H42.7769V39.4143ZM36.1489 39.2353V34.2703C36.1489 31.4231 33.8324 29.1067 30.9852 29.1067H25.4014V44.399H30.9852C33.8324 44.399 36.1489 42.0825 36.1489 39.2353ZM28.9169 32.6223H30.9851C31.8938 32.6223 32.6331 33.3617 32.6331 34.2703V39.2353C32.6331 40.144 31.8938 40.8833 30.9851 40.8833H28.9169V32.6223Z" fill="#00CD69"/>
</svg>
