<svg width="24" height="24" viewBox="0 0 24 24" fill="none" xmlns="http://www.w3.org/2000/svg">
<path d="M21.151 10.79C20.9673 10.7892 20.7902 10.7219 20.6523 10.6006C20.5145 10.4792 20.4252 10.3121 20.401 10.13C20.2488 8.68892 19.6067 7.34366 18.582 6.31898C17.5574 5.2943 16.2121 4.65224 14.771 4.50001C14.6699 4.49361 14.5712 4.46682 14.4808 4.42124C14.3904 4.37567 14.3101 4.31227 14.2449 4.23484C14.1796 4.15742 14.1308 4.06757 14.1012 3.97074C14.0716 3.87392 14.0618 3.7721 14.0726 3.67143C14.0834 3.57075 14.1146 3.47333 14.1641 3.38499C14.2135 3.29665 14.2804 3.21922 14.3606 3.15742C14.4408 3.09562 14.5327 3.05071 14.6307 3.02537C14.7288 3.00003 14.8309 2.99479 14.931 3.00999C16.7186 3.18818 18.3902 3.97638 19.665 5.24208C20.9398 6.50777 21.74 8.17378 21.931 9.96C21.9535 10.1576 21.8966 10.356 21.7728 10.5116C21.6491 10.6673 21.4686 10.7674 21.271 10.79H21.151Z" fill="white"/>
<path d="M17.9311 10.8C17.7578 10.7993 17.59 10.7395 17.4554 10.6303C17.3208 10.5212 17.2276 10.3694 17.1911 10.2C17.0737 9.57129 16.7694 8.99261 16.3181 8.53949C15.8667 8.08636 15.2893 7.77986 14.6611 7.66C14.5589 7.64777 14.4604 7.61466 14.3716 7.56274C14.2829 7.51082 14.2057 7.44118 14.145 7.35818C14.0842 7.27518 14.0412 7.18059 14.0186 7.08026C13.996 6.97993 13.9942 6.87602 14.0135 6.77499C14.0327 6.67396 14.0725 6.57794 14.1304 6.49295C14.1883 6.40796 14.2632 6.33581 14.3502 6.28094C14.4371 6.22608 14.5345 6.18968 14.6362 6.17404C14.7378 6.15839 14.8416 6.16383 14.9411 6.19C15.8644 6.364 16.714 6.81187 17.3792 7.47534C18.0445 8.13881 18.4946 8.98717 18.6711 9.91C18.7063 10.106 18.6632 10.3081 18.551 10.4727C18.4387 10.6373 18.2665 10.7512 18.0711 10.79L17.9311 10.8Z" fill="white"/>
<path d="M17.001 21.5C14.751 21.5 11.8211 19.72 8.30108 16.2C4.78108 12.68 2.98103 9.72998 3.00103 7.47998C2.98842 6.9971 3.07916 6.51713 3.26715 6.07217C3.45513 5.62721 3.73599 5.22756 4.091 4.89999L4.18109 4.82001C5.46109 3.53001 6.35109 3 7.18109 3C8.18109 3 8.94101 3.76999 9.85101 4.73999L10.5811 5.48999C11.0433 5.88992 11.3591 6.43242 11.4786 7.03183C11.5981 7.63124 11.5145 8.25337 11.241 8.79999C10.921 9.70999 10.6411 10.49 12.3011 12.14C13.9511 13.79 14.731 13.52 15.641 13.2C16.1869 12.923 16.8099 12.8375 17.4102 12.9572C18.0105 13.0769 18.5532 13.3948 18.9511 13.86L19.6911 14.58C20.6911 15.5 21.4211 16.22 21.4411 17.26C21.4411 18.13 20.921 19.02 19.621 20.32L19.5411 20.4C19.2132 20.7553 18.8137 21.037 18.369 21.2266C17.9242 21.4162 17.4445 21.5094 16.9611 21.5H17.001ZM5.14105 5.97998C4.93027 6.16726 4.76354 6.39892 4.65289 6.65826C4.54224 6.91761 4.49038 7.19822 4.50103 7.47998C4.50103 8.74998 5.33102 11.1 9.36102 15.14C13.391 19.18 15.731 20 17.001 20C17.2828 20.0107 17.5635 19.9588 17.8228 19.8481C18.0822 19.7375 18.3138 19.5708 18.501 19.36L18.6611 19.21C19.5311 18.33 19.981 17.68 19.981 17.28C19.981 16.88 19.4411 16.37 18.7011 15.67L17.9311 14.92C17.2511 14.24 16.9311 14.35 16.1711 14.62C14.8111 15.09 13.4211 15.34 11.2811 13.2C9.13106 11.06 9.38102 9.66999 9.86102 8.29999C10.131 7.53999 10.2411 7.22999 9.56109 6.54999L8.80108 5.76999C8.11108 5.03999 7.60111 4.51 7.20111 4.5C6.79111 4.5 6.14111 4.95 5.20111 5.88L5.14105 5.97998Z" fill="white"/>
</svg>
