<svg width="60" height="60" viewBox="0 0 60 60" fill="none" xmlns="http://www.w3.org/2000/svg">
<g clip-path="url(#clip0_16_1661)">
<mask id="mask0_16_1661" style="mask-type:luminance" maskUnits="userSpaceOnUse" x="0" y="0" width="60" height="60">
<path d="M0 0.000175476H59.9998V60H0V0.000175476Z" fill="white"/>
<path fill-rule="evenodd" clip-rule="evenodd" d="M59.9998 0.000175476H0V60H59.9998V0.000175476ZM59.8826 59.8828H0.117187V0.117363H59.8826V59.8828Z" fill="white"/>
</mask>
<g mask="url(#mask0_16_1661)">
<path fill-rule="evenodd" clip-rule="evenodd" d="M0.157024 47.7801C0.158787 54.5291 5.63059 60 12.3802 60H47.6239V37.609H44.1083V56.4844H12.3802C7.57115 56.4844 3.67264 52.5858 3.67264 47.7768V47.7736L3.52815 7.56437H36.8094V4.04876H-0.00012207L0.157024 47.7768V47.7801Z" fill="#5078FF"/>
<path fill-rule="evenodd" clip-rule="evenodd" d="M10.4166 53.3749C10.4166 57.0413 13.3894 60 17.049 60H19.9841V56.4844H17.049C15.3241 56.4844 13.9322 55.0928 13.9322 53.3749V46.4213H6.63729C4.95328 46.4213 3.61032 45.0544 3.63584 43.2602L3.63601 43.2477V38.4067H0.1204V43.2236C0.0756531 46.8617 2.88725 49.9369 6.63729 49.9369H10.4166V53.3749Z" fill="#5078FF"/>
<path fill-rule="evenodd" clip-rule="evenodd" d="M15.2054 17.3413H24.6177V13.8257H15.2054V17.3413Z" fill="#5078FF"/>
<path fill-rule="evenodd" clip-rule="evenodd" d="M15.2054 24.49H33.9066V20.9744H15.2054V24.49Z" fill="#5078FF"/>
<path fill-rule="evenodd" clip-rule="evenodd" d="M15.2054 31.6389H33.9066V28.1233H15.2054V31.6389Z" fill="#5078FF"/>
<path fill-rule="evenodd" clip-rule="evenodd" d="M15.2054 38.7878H33.9066V35.2722H15.2054V38.7878Z" fill="#5078FF"/>
<path fill-rule="evenodd" clip-rule="evenodd" d="M32 13.6845C32 21.2426 38.127 27.3696 45.6851 27.3696C53.2431 27.3696 59.3702 21.2427 59.3702 13.6845C59.3702 6.1265 53.2431 -0.000602722 45.6851 -0.000602722C38.127 -0.000602722 32 6.12651 32 13.6845ZM45.6851 23.854C40.0686 23.854 35.5156 19.301 35.5156 13.6845C35.5156 8.0681 40.0686 3.51501 45.6851 3.51501C51.3015 3.51501 55.8546 8.06812 55.8546 13.6845C55.8546 19.301 51.3015 23.854 45.6851 23.854Z" fill="#00CD69"/>
<path fill-rule="evenodd" clip-rule="evenodd" d="M39.0161 13.6845C39.0161 17.3677 42.0019 20.3535 45.6851 20.3535C49.3683 20.3535 52.354 17.3677 52.354 13.6845C52.354 10.0013 49.3683 7.01551 45.6851 7.01551C42.0019 7.01551 39.0161 10.0013 39.0161 13.6845ZM45.6851 16.8379C43.9435 16.8379 42.5317 15.4261 42.5317 13.6845C42.5317 11.9429 43.9435 10.5311 45.6851 10.5311C47.4266 10.5311 48.8384 11.9429 48.8384 13.6845C48.8384 15.4261 47.4266 16.8379 45.6851 16.8379Z" fill="#00CD69"/>
<path fill-rule="evenodd" clip-rule="evenodd" d="M52.5519 43.4175V24.4883H49.0363V37.3738L45.9189 35.6009L42.7986 37.3746V24.6044H39.283V43.4167L45.9185 39.6451L52.5519 43.4175Z" fill="#00CD69"/>
</g>
</g>
<defs>
<clipPath id="clip0_16_1661">
<rect width="60" height="60" fill="white"/>
</clipPath>
</defs>
</svg>
