<svg width="40" height="40" viewBox="0 0 40 40" fill="none" xmlns="http://www.w3.org/2000/svg">
<path fill-rule="evenodd" clip-rule="evenodd" d="M40 20C40 31.0457 31.0457 40 20 40C8.95426 40 0 31.0457 0 20C0 8.95426 8.95426 0 20 0C31.0457 0 40 8.95426 40 20ZM28.435 12.1322L9.15141 19.5671C7.82949 20.0846 7.85299 20.8154 8.92487 21.1564L13.8616 22.6961L25.3116 15.485C25.8436 15.1318 26.3366 15.332 25.9334 15.6868L16.667 24.0584L16.3124 29.1471C16.8295 29.1471 17.0545 28.9217 17.321 28.6556L19.7327 26.3322L24.7327 30.0171C25.6443 30.5339 26.2967 30.2669 26.5397 29.1707L29.8233 13.7028C30.1116 12.3503 29.3303 11.8083 28.435 12.1322Z" fill="white"/>
</svg>
