<svg width="60" height="60" viewBox="0 0 60 60" fill="none" xmlns="http://www.w3.org/2000/svg">
<rect width="60" height="60" rx="30" fill="white"/>
<path fill-rule="evenodd" clip-rule="evenodd" d="M40.6672 20.7465L32.7299 41.0858C32.708 41.1418 32.6873 41.1948 32.6677 41.2449C32.6481 41.1948 32.6275 41.1417 32.6057 41.0857L29.1679 32.2458L40.6672 20.7465ZM27.7537 30.8315L39.253 19.3323L18.9137 27.2695C18.8577 27.2914 18.8047 27.3121 18.7545 27.3318C18.8047 27.3513 18.8577 27.372 18.9138 27.3938L27.7537 30.8315ZM41.6226 16.2856C41.8577 16.2174 42.2628 16.1178 42.6872 16.2596C43.184 16.4255 43.5739 16.8154 43.7399 17.3123C43.8817 17.7366 43.7821 18.1418 43.7138 18.3769C43.6408 18.6283 43.5219 18.9327 43.3949 19.2582L34.578 41.8515C34.4362 42.2149 34.3066 42.5471 34.1817 42.7996C34.0702 43.0252 33.8569 43.4235 33.4355 43.6425C32.9532 43.893 32.379 43.8927 31.8971 43.6416C31.4759 43.4221 31.2631 43.0235 31.1518 42.7978C31.0273 42.5452 30.898 42.2128 30.7567 41.8493L27.2375 32.7999C27.2337 32.7902 27.2302 32.7811 27.2269 32.7726C27.2183 32.7692 27.2092 32.7657 27.1995 32.7619L18.1502 29.2428C17.7867 29.1014 17.4543 28.9722 17.2016 28.8476C16.9759 28.7364 16.5773 28.5236 16.3579 28.1024C16.1068 27.6204 16.1064 27.0462 16.357 26.5639C16.5759 26.1425 16.9743 25.9292 17.1998 25.8177C17.4524 25.6929 17.7846 25.5632 18.1479 25.4215L40.7414 16.6045C41.0668 16.4775 41.3712 16.3587 41.6226 16.2856Z" fill="#5078FF"/>
</svg>
