<svg width="60" height="60" viewBox="0 0 60 60" fill="none" xmlns="http://www.w3.org/2000/svg">
<g clip-path="url(#clip0_16_1632)">
<path fill-rule="evenodd" clip-rule="evenodd" d="M8.90622 31.7578C8.90622 35.6411 12.0542 38.7891 15.9374 38.7891C19.8207 38.7891 22.9687 35.6411 22.9687 31.7578C22.9687 27.8746 19.8207 24.7266 15.9374 24.7266C12.0542 24.7266 8.90622 27.8746 8.90622 31.7578ZM15.9374 35.2734C13.9958 35.2734 12.4218 33.6995 12.4218 31.7578C12.4218 29.8162 13.9958 28.2422 15.9374 28.2422C17.8791 28.2422 19.4531 29.8162 19.4531 31.7578C19.4531 33.6995 17.8791 35.2734 15.9374 35.2734Z" fill="#00CD69"/>
<path fill-rule="evenodd" clip-rule="evenodd" d="M7.14841 52.8516H24.7265V47.5781C24.7265 42.7241 20.7915 38.7891 15.9374 38.7891C11.0834 38.7891 7.14841 42.7241 7.14841 47.5781V52.8516ZM10.664 49.3359V47.5781C10.664 44.6657 13.025 42.3047 15.9374 42.3047C18.8499 42.3047 21.2109 44.6657 21.2109 47.5781V49.3359H10.664Z" fill="#00CD69"/>
<path fill-rule="evenodd" clip-rule="evenodd" d="M0 60H59.9998V17.6954H37.0311V21.211H56.4842V56.4844H3.51561V21.211H22.9687V17.6954H0V60Z" fill="#5078FF"/>
<path fill-rule="evenodd" clip-rule="evenodd" d="M21.2109 24.7266H38.7889V14.1797H21.2109V24.7266ZM24.7265 21.2109V17.6953H35.2733V21.2109H24.7265Z" fill="#5078FF"/>
<path fill-rule="evenodd" clip-rule="evenodd" d="M52.9686 28.2422H35.2733V31.7578H52.9686V28.2422Z" fill="#00CD69"/>
<path fill-rule="evenodd" clip-rule="evenodd" d="M52.9686 35.2734H31.7577V38.7891H52.9686V35.2734Z" fill="#00CD69"/>
<path fill-rule="evenodd" clip-rule="evenodd" d="M52.9686 42.3047H31.7577V45.8203H52.9686V42.3047Z" fill="#00CD69"/>
<path fill-rule="evenodd" clip-rule="evenodd" d="M52.9686 49.3359H31.7577V52.8516H52.9686V49.3359Z" fill="#00CD69"/>
<path fill-rule="evenodd" clip-rule="evenodd" d="M10.8739 2.01738L21.5379 16.9587L24.3994 14.9164L13.7354 -0.0249691L10.8739 2.01738Z" fill="#5078FF"/>
<path fill-rule="evenodd" clip-rule="evenodd" d="M38.4619 16.9587L49.1259 2.01738L46.2644 -0.0249691L35.6004 14.9164L38.4619 16.9587Z" fill="#5078FF"/>
</g>
<defs>
<clipPath id="clip0_16_1632">
<rect width="60" height="60" fill="white"/>
</clipPath>
</defs>
</svg>
