<svg width="24" height="24" viewBox="0 0 24 24" fill="none" xmlns="http://www.w3.org/2000/svg">
<path fill-rule="evenodd" clip-rule="evenodd" d="M17.5834 6.5L19.0501 5.4L19.9501 6.6L18.4834 7.7C18.0074 8.05701 17.4284 8.25 16.8334 8.25H13.4751C13.1616 8.25 12.875 8.42711 12.7348 8.70748C12.5619 9.05346 12.6516 9.47314 12.951 9.71809L14.951 11.3544C16.7217 12.8032 17.638 15.0502 17.3853 17.3241L17.3654 17.5035C17.2784 18.2869 17.0858 19.055 16.7931 19.7869L16.1964 21.2785L14.8037 20.7215L15.4004 19.2298C15.6429 18.6234 15.8024 17.987 15.8746 17.3378L15.8945 17.1584C16.091 15.3899 15.3783 13.6422 14.0011 12.5154L12.0011 10.879C11.1591 10.1901 10.9067 9.00976 11.3932 8.03666C11.7875 7.24811 12.5934 6.75 13.4751 6.75H16.8334C17.1039 6.75 17.367 6.66228 17.5834 6.5Z" fill="#B0B4C1"/>
<path fill-rule="evenodd" clip-rule="evenodd" d="M7.2999 12.1386C7.4409 11.2926 6.70743 10.5591 5.8614 10.7001L2.62331 11.2398L2.37671 9.76021L5.61481 9.22052C7.47606 8.91031 9.0897 10.5239 8.77949 12.3852L8.64497 13.1923C8.45827 14.3125 9.02401 15.4235 10.0398 15.9314C11.4034 16.6132 12.1105 18.1505 11.7407 19.6295L11.2276 21.6819L9.7724 21.3181L10.2855 19.2657C10.4847 18.4688 10.1037 17.6404 9.36896 17.273C7.76421 16.4706 6.87042 14.7154 7.16538 12.9457L7.2999 12.1386Z" fill="#B0B4C1"/>
<path fill-rule="evenodd" clip-rule="evenodd" d="M12 20.5C16.6944 20.5 20.5 16.6944 20.5 12C20.5 7.30558 16.6944 3.5 12 3.5C7.30558 3.5 3.5 7.30558 3.5 12C3.5 16.6944 7.30558 20.5 12 20.5ZM12 22C17.5228 22 22 17.5228 22 12C22 6.47715 17.5228 2 12 2C6.47715 2 2 6.47715 2 12C2 17.5228 6.47715 22 12 22Z" fill="#B0B4C1"/>
</svg>
