<svg width="256" height="50" viewBox="0 0 256 50" fill="none" xmlns="http://www.w3.org/2000/svg">
<g clip-path="url(#clip0_78_1475)">
<path d="M0.619049 50H25.3158L0.619049 25V50ZM50.0138 50V25L25.317 50H50.0138ZM25.3158 0L50.0138 25V0H25.317H25.3158ZM0.619049 0V25L25.3158 0H0.619049Z" fill="#00CC69"/>
<path d="M72.4456 11.8825V16.0581H77.5595L68.8429 37.529H75.234L77.1523 32.2348H88.0187L89.9951 37.529H96.5619L86.1597 11.8837H72.4445L72.4456 11.8825ZM78.8961 27.5883L82.557 17.7651L86.2761 27.5883H78.8961ZM112.426 21.293C111.553 19.8221 109.578 18.2348 106.498 18.2348C101.675 18.2348 97.8974 21.7046 97.8974 27.7639C97.8974 33.7058 101.675 37.1755 106.498 37.1755C109.404 37.1755 111.264 35.7639 112.193 34.4104V36.1174C112.193 39.5872 109.462 40.7639 106.672 40.7639C103.999 40.7639 101.733 39.9988 99.6412 38.5872V43.2348C101.558 44.4104 104.115 45.1162 107.602 45.1162C113.472 45.1162 117.946 42.1162 117.946 36.2348V18.7046H112.426V21.293ZM108.067 32.7639C105.452 32.7639 103.709 30.7639 103.709 27.7639C103.651 24.6465 105.452 22.7639 108.067 22.7639C109.636 22.7639 111.089 23.293 112.251 24.4104V31.1755C111.088 32.1755 109.636 32.7639 108.067 32.7639ZM130.733 22.8814L129.86 18.6465H121.202V22.5883H125.037V37.4697H130.849V25.9418C131.662 24.5883 133.29 23.5302 136.252 23.5302C137.125 23.5302 137.996 23.6476 138.52 23.8244V18.5883C138.171 18.4128 137.531 18.2942 136.892 18.2942C133.231 18.2942 131.197 20.5302 130.733 22.8825V22.8814ZM150.78 18.2348C144.793 18.2348 140.319 22.1767 140.319 28.1162C140.319 34.0581 144.735 37.9407 150.78 37.9407C156.707 37.9407 161.181 34.0569 161.181 28.1174C161.181 22.1755 156.707 18.2337 150.78 18.2337V18.2348ZM150.78 33.3511C147.99 33.3511 146.13 31.1767 146.13 28.1162C146.13 25 147.99 22.8232 150.78 22.8232C153.51 22.8232 155.37 24.9988 155.37 28.1162C155.37 31.1755 153.51 33.3523 150.78 33.3523V33.3511ZM175.419 18.2337C172.688 18.2337 170.886 19.529 169.898 20.8814V11.0581H164.087V37.529H169.608V34.9988C170.537 36.4697 172.455 37.9988 175.419 37.9988C180.242 37.9988 184.02 34.3523 184.02 28.1755C184.02 21.8814 180.242 18.2337 175.419 18.2337ZM173.908 33.3523C172.397 33.3523 171.002 32.8221 169.898 31.7639V24.4104C171.002 23.3523 172.397 22.8221 173.908 22.8221C176.582 22.8221 178.266 24.8814 178.266 28.1162C178.208 31.293 176.523 33.3523 173.908 33.3523ZM205.114 32.7639V25.5872C205.114 21.0581 201.686 18.2348 196.108 18.2348C192.678 18.2348 190.179 18.9988 188.32 20.1162V24.7046C190.309 23.2986 192.683 22.539 195.119 22.529C197.676 22.529 199.536 23.529 199.536 26.0581V26.529C198.49 26.2348 196.979 25.9988 195.41 25.9988C190.877 25.9988 186.751 27.8221 186.751 31.9988C186.751 35.4104 189.773 37.8825 193.782 37.8825C196.979 37.8825 198.664 36.7639 199.71 35.4104C200.291 37.1174 202.151 37.8814 203.952 37.8814C205.812 37.8814 206.741 37.4697 207.381 37.1755V33.7639C207.148 33.8221 206.741 33.8814 206.45 33.8814C205.754 33.9988 205.114 33.6465 205.114 32.7639ZM195.584 33.9988C193.724 33.9988 192.504 33.1162 192.504 31.8221C192.504 30.1174 194.422 29.529 196.166 29.529C197.444 29.529 198.548 29.7046 199.478 29.9988V32.2348C198.49 33.3511 197.27 33.9988 195.584 33.9988ZM223.419 18.2348C220.223 18.2348 218.073 19.8814 216.969 21.4104L216.387 18.6465H207.729V22.5883H211.564V37.4697H217.376V24.4116C218.189 23.5279 219.526 22.9988 220.979 22.9988C223.303 22.9988 224.64 24.1755 224.64 26.6465V37.529H230.45V24.9988C230.509 20.5872 227.487 18.2348 223.419 18.2348ZM255.323 37.4697V33.5872H252.65L248.234 27.1162L254.102 18.7046H248.292L243.584 25.529H241.027V11.0581H235.216V37.529H241.027V29.7046H243.642L248.756 37.529H255.381L255.323 37.4697Z" fill="black"/>
</g>
<defs>
<clipPath id="clip0_78_1475">
<rect width="254.762" height="50" fill="white" transform="translate(0.619049)"/>
</clipPath>
</defs>
</svg>
