<svg width="224" height="50" viewBox="0 0 224 50" fill="none" xmlns="http://www.w3.org/2000/svg">
<g clip-path="url(#clip0_78_1489)">
<path d="M80.125 1.0243H96.0604V6.26335H85.9854V10.0751H95.1705V15.3477H85.9686V23.2567H80.125V1.0243ZM97.6053 15.6332C97.5807 14.3394 97.8386 13.0558 98.3609 11.8718C98.7986 10.8693 99.4867 9.99619 100.359 9.33626C101.135 8.75397 101.996 8.29517 102.912 7.97612C103.768 7.69261 104.663 7.54529 105.565 7.53953C106.71 7.51995 107.849 7.71355 108.923 8.11045C109.816 8.42739 110.622 8.95098 111.274 9.63851C111.882 10.2806 112.37 11.0253 112.718 11.8382C113.075 12.6706 113.253 13.5689 113.238 14.4746C113.223 15.4094 113.133 16.3415 112.97 17.262H103.063C103.617 18.8236 105.229 19.6129 107.882 19.6129C109.37 19.6333 110.849 19.3829 112.248 18.874V22.8873C110.435 23.4907 108.533 23.7803 106.623 23.7436C104.289 23.8283 102.005 23.0647 100.191 21.5943C99.3304 20.8668 98.6492 19.9503 98.2007 18.9163C97.7522 17.8824 97.5484 16.7588 97.6053 15.6332ZM108.067 13.954C108.155 13.3632 108.011 12.761 107.664 12.2748C107.448 11.9609 107.152 11.7109 106.806 11.5513C106.46 11.3917 106.078 11.3284 105.699 11.3681C104.991 11.3405 104.299 11.5871 103.768 12.0565C103.506 12.2929 103.3 12.5839 103.164 12.9089C103.027 13.234 102.964 13.585 102.979 13.9372L108.067 13.954ZM120.509 10.0751C121.159 9.14513 122.066 8.42446 123.118 8.00104C124.171 7.57763 125.324 7.46978 126.437 7.69066V12.9465C125.41 12.7103 124.34 12.745 123.33 13.0473C122.43 13.2785 121.643 13.8271 121.114 14.5921V23.2567H115.774V8.0097H120.509V10.0751ZM133.691 23.2567H128.334V8.0097H133.07V9.68889C133.607 9.07494 134.264 8.57772 135.001 8.228C135.85 7.80262 136.788 7.58399 137.738 7.58991C138.603 7.52424 139.47 7.68295 140.255 8.05068C141.041 8.4184 141.718 8.98268 142.221 9.68889C143.498 8.38593 145.233 7.63284 147.057 7.58991C148.014 7.56681 148.963 7.76808 149.828 8.17762C150.529 8.52214 151.113 9.06524 151.507 9.73926C151.857 10.3341 152.128 10.9719 152.313 11.6367C152.5 12.2192 152.613 12.8228 152.649 13.4335V23.2063H147.276V13.954C147.288 13.7115 147.252 13.4689 147.168 13.2408C147.084 13.0128 146.955 12.8042 146.789 12.6275C146.624 12.4635 146.427 12.3356 146.21 12.2518C145.993 12.168 145.761 12.1301 145.529 12.1405C145.114 12.1477 144.706 12.2393 144.327 12.4096C143.949 12.5799 143.61 12.8254 143.329 13.1312V23.2063H137.906V13.954C137.918 13.7115 137.882 13.4689 137.798 13.2408C137.714 13.0128 137.585 12.8042 137.419 12.6275C137.262 12.4718 137.076 12.3487 136.871 12.2651C136.667 12.1816 136.447 12.1392 136.227 12.1405C135.728 12.1482 135.238 12.2739 134.797 12.5074C134.357 12.7409 133.977 13.0755 133.691 13.4838V23.2567ZM155.134 15.6332C155.11 14.3394 155.367 13.0558 155.89 11.8718C156.333 10.8728 157.02 10.0009 157.888 9.33626C158.666 8.7573 159.526 8.29878 160.44 7.97612C161.297 7.69369 162.192 7.54639 163.093 7.53953C164.239 7.51877 165.378 7.7124 166.452 8.11045C167.348 8.43174 168.158 8.95454 168.819 9.63851C169.404 10.2884 169.875 11.032 170.213 11.8382C170.57 12.6706 170.748 13.5689 170.734 14.4746C170.727 15.4098 170.637 16.3426 170.465 17.262H160.558C161.129 18.8236 162.724 19.6129 165.394 19.6129C166.877 19.6335 168.35 19.3831 169.743 18.874V22.8873C167.93 23.4907 166.028 23.7803 164.118 23.7436C161.785 23.8283 159.5 23.0647 157.686 21.5943C156.832 20.8634 156.157 19.9455 155.714 18.9117C155.272 17.878 155.073 16.7561 155.134 15.6332ZM165.595 13.954C165.684 13.3632 165.54 12.761 165.192 12.2748C164.977 11.9609 164.681 11.7109 164.335 11.5513C163.989 11.3917 163.607 11.3284 163.228 11.3681C162.52 11.3439 161.83 11.5901 161.297 12.0565C161.035 12.2929 160.829 12.5839 160.692 12.9089C160.556 13.234 160.493 13.585 160.507 13.9372L165.595 13.954ZM178.021 10.0751C178.671 9.14513 179.578 8.42446 180.63 8.00104C181.683 7.57763 182.836 7.46978 183.949 7.69066V12.9465C182.922 12.7103 181.852 12.745 180.842 13.0473C179.948 13.2822 179.167 13.8304 178.643 14.5921V23.2567H173.286V8.0097H178.021V10.0751ZM185.981 0H191.354V23.2567H185.981V0ZM208.986 18.8404C208.986 19.4785 209.321 19.7976 210.027 19.7976C210.227 19.7993 210.426 19.7652 210.614 19.6968V23.0552C209.752 23.3841 208.834 23.5437 207.911 23.5254C207.214 23.5889 206.514 23.467 205.879 23.1721C205.245 22.8772 204.701 22.4197 204.301 21.8462C202.81 23.0542 200.946 23.7071 199.028 23.6933C197.665 23.7415 196.333 23.2873 195.283 22.4171C194.792 22.009 194.399 21.4949 194.134 20.9132C193.869 20.3316 193.74 19.6976 193.755 19.0587C193.738 18.2186 193.947 17.3892 194.36 16.6575C194.74 15.9974 195.291 15.452 195.955 15.0791C196.612 14.728 197.312 14.4628 198.037 14.2898C198.792 14.1187 199.564 14.0342 200.338 14.038C201.439 14.0345 202.537 14.1528 203.612 14.3906V13.8197C203.612 13.5393 203.538 13.2639 203.396 13.0219C203.254 12.7799 203.051 12.58 202.806 12.4427C202.088 12.0479 201.273 11.8673 200.455 11.9222C198.627 11.9697 196.826 12.3688 195.149 13.0976V8.54704C197.054 7.90172 199.049 7.56168 201.06 7.53953C203.158 7.4148 205.236 8.00691 206.954 9.21871C207.687 9.92306 208.251 10.7848 208.603 11.7388C208.955 12.6929 209.086 13.7145 208.986 14.7264V18.8404ZM199.28 18.5214C199.28 18.7281 199.327 18.932 199.418 19.1181C199.508 19.3041 199.638 19.4675 199.8 19.5961C200.177 19.8931 200.648 20.0424 201.127 20.0159C202.019 20.0304 202.892 19.7533 203.612 19.2266V17.2284C202.987 17.0324 202.336 16.936 201.681 16.943C200.035 16.943 199.28 17.4971 199.28 18.5886V18.5214ZM217.6 10.0751C218.254 9.14534 219.163 8.42523 220.219 8.00201C221.274 7.5788 222.429 7.47064 223.544 7.69066V12.9465C222.517 12.7095 221.447 12.7443 220.438 13.0473C219.541 13.278 218.759 13.8271 218.238 14.5921V23.2567H212.864V8.0097H217.6V10.0751Z" fill="black"/>
<path d="M98.2661 30H100.27V49.6553H97.9395V34.4685L90.9325 45.0236H89.4479L82.4409 34.4685V49.6553H80.125V30H82.1885L90.205 42.1287L98.2661 30ZM115.828 46.8495C115.808 46.9906 115.822 47.1344 115.867 47.2695C115.912 47.4046 115.988 47.5273 116.089 47.628C116.19 47.7288 116.312 47.8048 116.447 47.85C116.583 47.8952 116.726 47.9085 116.867 47.8887C117.222 47.8805 117.573 47.8153 117.907 47.6957V49.5217C117.37 49.7239 116.802 49.8294 116.229 49.8335C115.692 49.8911 115.152 49.7595 114.702 49.4613C114.252 49.1632 113.921 48.7172 113.765 48.2005C112.304 49.4127 110.451 50.0513 108.554 49.9968C107.354 50.0283 106.178 49.6573 105.214 48.9428C104.754 48.5853 104.389 48.1215 104.148 47.5914C103.908 47.0613 103.799 46.4806 103.833 45.8994C103.785 45.2146 103.924 44.5296 104.235 43.9177C104.546 43.3058 105.018 42.79 105.6 42.4256C106.903 41.6771 108.388 41.3021 109.89 41.3419C111.139 41.3466 112.384 41.491 113.601 41.7724V41.2974C113.623 40.8379 113.543 40.3794 113.369 39.9537C113.194 39.5281 112.929 39.1456 112.592 38.833C111.801 38.1834 110.792 37.8596 109.771 37.9275C108.091 37.9211 106.427 38.2649 104.887 38.9369V36.7398C106.529 36.1653 108.254 35.8644 109.994 35.8491C111.564 35.7561 113.107 36.2901 114.284 37.3336C114.813 37.8991 115.219 38.5688 115.474 39.2999C115.73 40.031 115.83 40.8074 115.769 41.5794L115.828 46.8495ZM106.119 45.7807C106.101 46.1141 106.169 46.4468 106.317 46.746C106.465 47.0452 106.689 47.3009 106.966 47.4879C107.58 47.8803 108.3 48.077 109.029 48.052C109.888 48.0755 110.741 47.9124 111.53 47.5741C112.32 47.2358 113.026 46.7303 113.601 46.0924V43.6281C112.485 43.3781 111.346 43.2438 110.202 43.2273C109.177 43.1865 108.158 43.3954 107.233 43.8359C106.878 44.0169 106.584 44.2972 106.387 44.6426C106.189 44.9879 106.096 45.3834 106.119 45.7807ZM132.485 49.6553H129.857L124.958 43.8805H122.271V49.6553H120.089V30H122.271V41.8763H124.973L129.219 36.2499H131.817L126.74 42.96L132.485 49.6553ZM136.122 31.9893L138.334 31.44V36.1757H143.693V38.2541H138.334V45.2166C138.291 45.5918 138.329 45.9718 138.447 46.3306C138.565 46.6894 138.76 47.0184 139.017 47.2949C139.65 47.7476 140.424 47.9583 141.199 47.8887C142.22 47.8778 143.229 47.6659 144.168 47.2652V49.3436C143.012 49.7617 141.79 49.9728 140.561 49.9671C139.379 50.0273 138.219 49.6284 137.324 48.8537C136.904 48.4319 136.579 47.9246 136.371 47.3663C136.164 46.8079 136.079 46.2115 136.122 45.6174V38.1947H133.613V36.1163H136.122V31.9893ZM157.9 46.8347C157.878 46.975 157.889 47.1185 157.932 47.2538C157.975 47.3891 158.05 47.5123 158.149 47.6134C158.249 47.7146 158.371 47.7909 158.506 47.8361C158.641 47.8814 158.784 47.8943 158.924 47.8739C159.279 47.8669 159.63 47.8017 159.964 47.6809V49.5069C159.428 49.7106 158.859 49.8162 158.286 49.8186C157.751 49.8756 157.214 49.7434 156.766 49.4451C156.319 49.1468 155.99 48.7012 155.837 48.1856C154.371 49.4018 152.515 50.0453 150.611 49.9968C149.416 50.0284 148.245 49.6572 147.286 48.9428C146.822 48.5886 146.452 48.1259 146.208 47.5952C145.965 47.0645 145.856 46.4822 145.89 45.8994C145.842 45.213 145.982 44.5264 146.296 43.914C146.61 43.3017 147.086 42.787 147.672 42.4256C148.97 41.6768 150.449 41.3018 151.947 41.3419C153.201 41.3475 154.451 41.4919 155.673 41.7724V41.2974C155.694 40.8379 155.615 40.3794 155.441 39.9537C155.266 39.5281 155.001 39.1456 154.664 38.833C153.872 38.186 152.864 37.8626 151.843 37.9275C150.163 37.9194 148.499 38.2632 146.959 38.9369V36.7398C148.601 36.1642 150.326 35.8633 152.066 35.8491C153.636 35.7561 155.179 36.2901 156.356 37.3336C156.882 37.9012 157.286 38.5712 157.541 39.3017C157.797 40.0323 157.899 40.8077 157.841 41.5794L157.9 46.8347ZM148.191 45.7658C148.173 46.0993 148.241 46.4319 148.389 46.7312C148.537 47.0304 148.761 47.286 149.037 47.4731C149.646 47.8669 150.362 48.0638 151.086 48.0372C151.947 48.0628 152.803 47.9008 153.595 47.5624C154.388 47.224 155.097 46.7174 155.673 46.0776V43.6281C154.552 43.378 153.408 43.2437 152.259 43.2273C151.235 43.19 150.217 43.3987 149.29 43.8359C148.937 44.0175 148.645 44.2984 148.45 44.644C148.254 44.9896 148.165 45.3847 148.191 45.7807V45.7658ZM162.354 30H164.595V38.1947C165.224 37.4359 166.018 36.8303 166.915 36.4239C167.813 36.0175 168.791 35.8209 169.776 35.8491C170.673 35.8263 171.565 35.9945 172.391 36.3426C173.218 36.6907 173.961 37.2107 174.572 37.8681C175.207 38.5424 175.703 39.3352 176.031 40.2013C176.36 41.0673 176.515 41.9896 176.487 42.9155C176.542 44.7897 175.854 46.6096 174.572 47.9778C173.961 48.6351 173.218 49.1551 172.391 49.5032C171.565 49.8513 170.673 50.0196 169.776 49.9968C168.74 49.9965 167.717 49.7644 166.782 49.3174C165.847 48.8705 165.024 48.22 164.373 47.4137V49.6553H162.354V30ZM172.894 46.5378C173.352 46.0567 173.708 45.4877 173.941 44.8651C174.173 44.2425 174.276 43.5793 174.245 42.9155C174.276 42.2519 174.172 41.5889 173.939 40.9664C173.707 40.3439 173.352 39.7748 172.894 39.2932C172.46 38.8413 171.936 38.4861 171.355 38.2508C170.774 38.0154 170.15 37.9052 169.524 37.9275C168.458 37.9188 167.418 38.2518 166.555 38.8776C165.717 39.4787 165.055 40.2939 164.64 41.238V44.6079C165.018 45.5613 165.643 46.3967 166.451 47.0277C167.314 47.6535 168.354 47.9864 169.42 47.9778C170.059 47.997 170.695 47.8783 171.284 47.6298C171.873 47.3813 172.402 47.0089 172.835 46.5378H172.894ZM181.683 49.6553H179.456V36.1757H181.653L181.683 49.6553ZM181.683 30.8313C181.822 30.9694 181.932 31.1335 182.007 31.3144C182.083 31.4954 182.122 31.6894 182.122 31.8854C182.122 32.0813 182.083 32.2754 182.007 32.4563C181.932 32.6372 181.822 32.8014 181.683 32.9394C181.397 33.192 181.025 33.3249 180.643 33.3105C180.267 33.3211 179.901 33.1885 179.619 32.9394C179.48 32.8014 179.369 32.6372 179.294 32.4563C179.219 32.2754 179.18 32.0813 179.18 31.8854C179.18 31.6894 179.219 31.4954 179.294 31.3144C179.369 31.1335 179.48 30.9694 179.619 30.8313C179.899 30.5769 180.265 30.4388 180.643 30.4454C180.98 30.4673 181.3 30.6034 181.549 30.8313H181.683Z" fill="black"/>
<path fill-rule="evenodd" clip-rule="evenodd" d="M0.125 50H62.625V18.75L31.375 50L0.125 18.75V50Z" fill="#00CD69"/>
<path fill-rule="evenodd" clip-rule="evenodd" d="M31.2713 34.9999C34.7368 35.0205 38.1304 34.0116 41.0219 32.1012C43.9133 30.1908 46.1725 27.4649 47.5129 24.2691C48.8534 21.0732 49.2148 17.5514 48.5513 14.1499C47.8878 10.7484 46.2293 7.62052 43.7861 5.16272C41.3429 2.70491 38.2249 1.02787 34.8274 0.344178C31.43 -0.339513 27.906 0.000935436 24.7023 1.32237C21.4985 2.6438 18.7592 4.8867 16.8317 7.76677C14.9041 10.6468 13.8751 14.0344 13.8751 17.4999C13.8632 22.1269 15.689 26.5692 18.951 29.8507C22.213 33.1321 26.6444 34.9842 31.2713 34.9999Z" fill="#FFAA46"/>
</g>
<defs>
<clipPath id="clip0_78_1489">
<rect width="223.75" height="50" fill="white" transform="translate(0.125)"/>
</clipPath>
</defs>
</svg>
